<?xml version="1.0" encoding="UTF-8" standalone="no"?>
<!-- Created with Inkscape (http://www.inkscape.org/) -->

<svg
   width="498.12549"
   height="165.84753"
   viewBox="0 0 131.7957 43.880493"
   version="1.1"
   id="svg1"
   xml:space="preserve"
   inkscape:version="1.4.4 (dcaf3e7, 2026-05-05)"
   sodipodi:docname="logo-study.svg"
   xmlns:inkscape="http://www.inkscape.org/namespaces/inkscape"
   xmlns:sodipodi="http://sodipodi.sourceforge.net/DTD/sodipodi-0.dtd"
   xmlns="http://www.w3.org/2000/svg"
   xmlns:svg="http://www.w3.org/2000/svg"><sodipodi:namedview
     id="namedview1"
     pagecolor="#ffffff"
     bordercolor="#000000"
     borderopacity="0.25"
     inkscape:showpageshadow="2"
     inkscape:pageopacity="0.0"
     inkscape:pagecheckerboard="0"
     inkscape:deskcolor="#d1d1d1"
     inkscape:document-units="mm"
     inkscape:export-bgcolor="#ffffff00"
     inkscape:zoom="0.33019663"
     inkscape:cx="1883.7261"
     inkscape:cy="1063.003"
     inkscape:window-width="1512"
     inkscape:window-height="921"
     inkscape:window-x="0"
     inkscape:window-y="33"
     inkscape:window-maximized="1"
     inkscape:current-layer="layer1"><inkscape:page
       x="0"
       y="0"
       width="131.7957"
       height="43.880493"
       id="page2"
       margin="0"
       bleed="0" /></sodipodi:namedview><defs
     id="defs1" /><g
     inkscape:label="Layer 1"
     inkscape:groupmode="layer"
     id="layer1"
     transform="translate(-597.08516,-501.54261)"><g
       id="g769"><path
         style="font-size:6.79133px;font-family:'Freedom Street';-inkscape-font-specification:'Freedom Street, Normal';baseline-shift:baseline;display:inline;overflow:visible;vector-effect:none;fill:#1e1714;stroke-width:4.63241;stroke-linecap:round;stroke-linejoin:round;paint-order:stroke fill markers;enable-background:accumulate;stop-color:#000000"
         d="m 614.64072,505.86993 c -1.06288,0.20017 -2.20643,0.38226 -3.43811,0.61525 a 5.0961561,5.0961561 0 0 0 -0.28972,0.0633 c -2.6785,0.67036 -3.48893,2.72293 -3.7548,3.56475 -0.1877,0.5942 -0.16402,0.89086 -0.18081,1.23955 a 5.0961561,5.0961561 0 0 0 -0.0344,-0.0172 l 0.0258,-0.353 c -0.0258,0.14765 -0.0172,0.21438 -0.0344,0.353 a 5.0961561,5.0961561 0 0 0 -2.05377,-0.90475 c -1.23801,0.2006 -2.42956,0.42058 -3.51956,0.59712 a 5.0961561,5.0961561 0 0 0 -4.22525,5.74527 c -0.0172,-0.12656 0.0258,0.29574 0.0814,0.66954 0.0259,0.18684 0.0642,0.38443 0.11752,0.65142 0.0538,0.26691 -0.0736,0.36807 0.50669,1.52905 a 5.0961561,5.0961561 0 0 0 0.28972,0.50669 c 1.31045,2.00422 2.64182,3.55786 3.59192,4.90383 a 5.0961561,5.0961561 0 0 0 0.0542,0.0723 c 0.58172,0.79327 1.02621,1.51175 1.26668,2.05382 0.001,0.003 0.009,0.009 0.009,0.009 0.3388,0.80303 0.65671,2.07379 1.23047,3.71861 a 5.0961561,5.0961561 0 0 0 0.0633,0.14464 c -0.0387,-0.0982 0.14723,0.49846 0.4524,1.18523 0.15283,0.34352 0.33622,0.74186 0.71479,1.29383 0.0745,0.10891 0.43204,0.29359 0.52476,0.42532 -0.61181,0.63226 -1.54029,1.24261 -1.1943,3.66428 a 5.0961561,5.0961561 0 0 0 0,0.0542 c 0.10288,0.66876 0.19329,1.00519 0.21696,1.14001 0.50457,3.53282 2.24991,3.80867 2.95858,4.24334 0.70871,0.43466 1.2445,0.64956 1.3662,0.70574 a 5.0961561,5.0961561 0 0 0 0.0172,0.009 c 2.0744,0.94699 4.21497,1.42621 6.27908,1.62858 a 5.0961561,5.0961561 0 0 0 0.25356,0.0172 c 0.82925,0.0388 1.91283,0.0603 3.19332,-0.1722 a 5.0961561,5.0961561 0 0 0 2.88618,-2.79577 l -2.85001,2.78669 c 1.06046,-0.20061 2.26105,-0.38443 3.52859,-0.62429 a 5.0961561,5.0961561 0 0 0 0.0452,-0.009 c 1.30163,-0.26044 3.5118,-0.53983 5.15717,-3.50142 a 5.0961561,5.0961561 0 0 0 0.10848,-0.18985 c 1.16332,-2.3267 0.76851,-4.22473 0.57905,-5.26575 -0.099,-0.54529 -0.20275,-1.31966 -0.42532,-2.29807 a 5.0961561,5.0961561 0 0 0 -0.0452,-0.18985 c -0.41714,-1.55558 -0.93778,-2.95233 -1.41144,-4.21621 l -0.0259,-0.0904 c -1.08612,-3.07322 -2.14956,-6.11614 -3.03981,-9.08363 a 5.0961561,5.0961561 0 0 0 -0.009,-0.0452 c -0.65254,-2.10588 -1.23977,-4.26559 -1.83669,-6.49622 v -0.009 c -0.2527,-0.95491 -0.52855,-2.24126 -1.10382,-3.74573 l 0.23505,0.8233 c -0.0926,-0.46208 -0.15368,-0.87289 -0.61521,-1.71902 -0.23074,-0.42317 -0.55145,-1.00382 -1.42048,-1.68287 -0.86886,-0.67871 -2.66616,-1.31933 -4.24317,-1.00395 z m -7.0843,26.1387 c -0.14809,0.0986 -0.34267,0.30651 -0.49765,0.42532 -0.13431,0.12054 -0.0387,-0.0215 -0.28025,0.21697 z m 0.17176,3.44719 c 0.0749,0.0387 0.17478,0.0301 0.27164,0.0633 0.10935,0.0482 0.0603,0.0982 0.18081,0.14463 z"
         id="path24-5-6-6-7-7-4-0-3" /><path
         style="font-size:6.79133px;font-family:'Freedom Street';-inkscape-font-specification:'Freedom Street, Normal';baseline-shift:baseline;display:inline;overflow:visible;vector-effect:none;fill:#1e1714;stroke-width:4.63241;stroke-linecap:round;stroke-linejoin:round;paint-order:stroke fill markers;enable-background:accumulate;stop-color:#000000"
         d="m 648.96759,508.43042 c -1.12613,0.20751 -2.29093,0.40036 -3.55575,0.63335 -0.66623,0.38915 -1.23547,0.92417 -1.66475,1.56521 -0.89507,-0.95418 -2.12287,-1.52754 -3.42906,-1.60142 -1.11049,0.20448 -2.31534,0.39346 -3.58288,0.63334 -2.72314,0.51464 -4.53585,3.1111 -4.08052,5.84479 0.009,0.0474 0.068,0.38916 0.12657,0.72383 0.059,0.33492 -0.14422,0.0172 0.31684,1.40236 0.0172,0.0487 0.0344,0.0969 0.0542,0.14464 0.98815,2.69503 1.8663,5.45439 2.6962,8.25149 0.60526,2.07049 1.16946,3.98465 1.47477,5.66382 0.12183,0.70118 0.18812,1.56586 0.28972,2.71432 l -0.009,-0.1356 c 0.071,1.13615 0.26905,1.83346 0.32588,2.13523 0.0172,0.1003 0.0387,0.19974 0.0633,0.29875 -0.009,-0.0344 -0.0586,0.29058 0.51573,1.35716 0.28713,0.53326 0.82529,1.38175 1.98141,2.05383 1.98524,1.38281 3.08429,0.51865 5.2021,-0.0586 1.68724,-0.79829 5.11943,-3.36918 8.30069,-0.42791 1.98461,1.83506 2.24574,0.70975 4.29182,0.39778 2.48515,-0.37883 1.07671,-1.24894 1.81666,-1.83638 0.25739,-1.54236 0.65882,-1.70487 0.62866,-1.96587 -0.0301,-0.26088 -0.0601,-0.45774 -0.0905,-0.64238 -0.0607,-0.36936 -0.15054,-0.88216 -0.10857,-0.58809 -0.0954,-0.22816 -0.20728,-0.44874 -0.33479,-0.6605 -0.0237,-0.17951 -0.0569,-0.35774 -0.0995,-0.53381 -1.291,-3.2418 -2.29685,-6.72592 -3.17574,-10.33243 -0.003,-0.003 -0.006,-0.004 -0.009,-0.009 -0.54269,-2.20089 -1.01653,-4.42642 -1.40239,-6.62287 -0.0112,-0.0607 -0.0233,-0.12097 -0.0362,-0.1808 -0.12915,-0.60281 -0.20057,-1.12199 -0.25335,-1.62858 0.003,-0.0538 0.0815,-0.0827 0.0815,-0.13561 -4.6e-4,-0.33406 -0.034,-0.66756 -0.0995,-0.99525 0.008,0.0388 0.0721,-0.83609 -0.62429,-2.46098 -0.93823,-2.18904 -3.26751,-3.43633 -5.60955,-3.00382 z m 10.50434,24.43773 c 0.24559,0.32071 0.516,0.67918 0.51572,0.67858 -2.1e-4,-4.4e-4 0.0838,0.37452 0.14478,0.65145 -0.15403,-0.47319 -0.37656,-0.92128 -0.66049,-1.33003 z"
         id="path28-4-6-7-2-3-8-4-9"
         sodipodi:nodetypes="cccccssccccccccsscsscssccccccccccscccscc" /><path
         style="font-size:6.79133px;font-family:'Freedom Street';-inkscape-font-specification:'Freedom Street, Normal';baseline-shift:baseline;display:inline;overflow:visible;vector-effect:none;fill:#1e1714;stroke-width:4.63241;stroke-linecap:round;stroke-linejoin:round;paint-order:stroke fill markers;enable-background:accumulate;stop-color:#000000"
         d="m 628.23032,508.76518 c -1.15621,-5e-4 -0.9064,0.009 -0.0904,0.009 a 5.0961561,5.0961561 0 0 0 -0.95001,0.0904 c -1.00743,0.19071 -2.10642,0.37237 -3.26621,0.58809 -1.64868,0.23548 -3.1798,1.48717 -3.80001,2.44285 -0.62021,0.95573 -0.74397,1.61666 -0.84144,2.09003 -0.19501,0.94673 -0.20146,1.44743 -0.15367,1.11286 a 5.0961561,5.0961561 0 0 0 0,0.0172 c -0.15542,1.11996 -0.32331,2.30807 -0.43429,3.601 -0.18295,2.03208 -0.18467,4.08431 0,6.11622 a 5.0961561,5.0961561 0 0 0 0,0.0633 c 0.11925,1.15496 0.30393,2.16817 0.46144,3.04907 0.63726,3.58507 2.33274,6.5598 4.18002,8.98431 l -0.0172,-0.009 c 0.51091,0.67514 1.32999,1.73806 2.50622,2.8229 1.17623,1.08478 2.78992,2.98884 6.53242,2.40664 a 5.0961561,5.0961561 0 0 0 0.009,0 c 1.23814,-0.19544 2.42526,-0.42015 3.58288,-0.63334 2.91963,-0.46091 4.09517,-2.15076 4.84956,-3.24808 a 5.0961561,5.0961561 0 0 0 0.16272,-0.24408 c 1.37657,-2.27436 1.70365,-4.54752 1.79144,-6.47813 0.19458,-3.37319 -0.38271,-6.33341 -0.81432,-8.83055 a 5.0961561,5.0961561 0 0 0 -0.009,-0.0344 c -0.32158,-1.76781 -0.69072,-4.00928 -1.83668,-6.39669 a 5.0961561,5.0961561 0 0 0 -0.0344,-0.0723 c -1.12272,-2.24543 -2.62279,-4.04299 -4.15289,-5.53717 -0.23806,-0.23762 -0.45076,-0.43324 -0.94096,-0.76003 -0.2527,-0.16875 -0.56248,-0.37969 -1.18522,-0.60617 -0.62275,-0.22644 -1.72291,-0.62576 -3.43815,-0.0542 l 0.79623,-0.19889 c -0.34611,0.056 -0.67763,0.1214 -1.02241,0.1808 -0.24624,-0.12785 -0.59575,-0.30736 -0.59713,-0.30779 -0.004,-0.001 -0.99572,-0.16273 -1.2848,-0.16273 z m -5.7181,17.00058 a 5.0961561,5.0961561 0 0 0 0.0259,0.25356 c 0.0129,0.1115 -0.004,0.21395 0.009,0.32588 z"
         id="path26-5-66-8-4-8-1-5-6" /><path
         style="font-size:6.79133px;font-family:'Freedom Street';-inkscape-font-specification:'Freedom Street, Normal';baseline-shift:baseline;display:inline;overflow:visible;vector-effect:none;fill:#ed7470;stroke-width:4.63241;stroke-linecap:round;stroke-linejoin:round;paint-order:stroke fill markers;enable-background:accumulate;stop-color:#000000"
         d="m 618.28468,540.53636 c 1.16404,-0.22041 2.35951,-0.40896 3.52356,-0.6292 0.6292,-0.1257 1.38424,-0.40897 1.69883,-0.97528 0.31469,-0.6292 0.25184,-1.38423 0.12571,-2.07637 -0.12571,-0.6921 -0.22041,-1.38424 -0.37753,-2.07638 -0.34613,-1.28984 -0.81798,-2.57971 -1.28988,-3.83811 -1.10111,-3.11459 -2.20221,-6.26061 -3.14602,-9.40663 -0.69214,-2.23368 -1.28987,-4.46735 -1.88761,-6.70099 -0.28326,-1.06968 -0.53484,-2.17079 -0.9438,-3.24042 -0.0301,-0.15713 -0.12571,-0.44044 -0.28326,-0.40897 -1.16405,0.22041 -2.32805,0.40897 -3.49209,0.6292 -0.1257,0.0301 -0.15714,0.25184 -0.15714,0.37754 -0.0943,0.53484 -0.1257,1.06964 -0.15712,1.60448 -0.22041,3.33478 -0.40896,6.66957 -0.72357,9.97289 -0.4719,-1.16405 -1.19551,-2.20222 -1.91907,-3.24042 -1.13258,-1.60443 -2.42245,-3.11456 -3.49209,-4.75045 -1.16404,0.18855 -2.35952,0.40896 -3.52356,0.59772 0.0302,0.22042 0.12571,1.10111 0.22041,1.28989 1.06965,1.6359 2.35952,3.14601 3.49209,4.75049 0.69214,0.9438 1.35278,1.95051 1.82467,3.02014 0.56631,1.32134 0.91238,2.73705 1.38428,4.08986 0.15713,0.40896 0.50333,1.54154 0.91234,1.69884 0.0629,0.0301 0.0943,0.0301 0.15713,0.0301 1.16404,-0.22041 2.32804,-0.44048 3.49209,-0.62921 0.15712,-0.0301 0.31468,-0.34611 0.34611,-0.4719 0.22041,-0.59778 0.31469,-1.19551 0.44048,-1.82471 0.31468,-1.98197 0.4719,-3.99546 0.6292,-6.0089 1.03817,3.52355 2.23368,7.01564 3.46062,10.47625 0.4719,1.32135 0.97527,2.64265 1.3213,4.02689 0.15712,0.62925 -0.0943,1.47864 -0.56627,1.88765 -1.76177,-0.18856 -3.55498,-0.66067 -5.09656,-1.54158 0.22041,-0.15713 0.44048,-0.28326 0.66067,-0.40896 -0.0629,-0.44044 -0.15713,-0.8494 -0.21998,-1.25841 -1.16404,0.22041 -2.35951,0.40896 -3.52355,0.62921 -0.15713,0.0301 -0.6292,0.3461 -0.72361,0.44047 -0.18856,0.12571 -0.5348,0.40896 -0.50333,0.6292 0.0629,0.40897 0.15713,0.7865 0.21998,1.19547 0.0629,0.44047 1.00674,0.84944 1.41571,1.03822 1.44717,0.66066 3.05165,1.03816 4.65613,1.19546 0.66066,0.0302 1.35277,0.0302 2.0449,-0.0943 z"
         id="path25-3-7-9-1-7-2-8-4" /><path
         style="font-size:6.79133px;font-family:'Freedom Street';-inkscape-font-specification:'Freedom Street, Normal';baseline-shift:baseline;display:inline;overflow:visible;vector-effect:none;fill:#c68cf2;fill-opacity:1;stroke:#a661db;stroke-width:4.63241;stroke-linecap:round;stroke-linejoin:round;stroke-opacity:1;paint-order:stroke fill markers;enable-background:accumulate;stop-color:#000000"
         d="m 618.28468,540.53636 c 1.16404,-0.22041 2.35951,-0.40896 3.52356,-0.6292 0.6292,-0.1257 1.38424,-0.40897 1.69883,-0.97528 0.31469,-0.6292 0.25184,-1.38423 0.12571,-2.07637 -0.12571,-0.6921 -0.22041,-1.38424 -0.37753,-2.07638 -0.34613,-1.28984 -0.81798,-2.57971 -1.28988,-3.83811 -1.10111,-3.11459 -2.20221,-6.26061 -3.14602,-9.40663 -0.69214,-2.23368 -1.28987,-4.46735 -1.88761,-6.70099 -0.28326,-1.06968 -0.53484,-2.17079 -0.9438,-3.24042 -0.0301,-0.15713 -0.12571,-0.44044 -0.28326,-0.40897 -1.16405,0.22041 -2.32805,0.40897 -3.49209,0.6292 -0.1257,0.0301 -0.15714,0.25184 -0.15714,0.37754 -0.0943,0.53484 -0.1257,1.06964 -0.15712,1.60448 -0.22041,3.33478 -0.40896,6.66957 -0.72357,9.97289 -0.4719,-1.16405 -1.19551,-2.20222 -1.91907,-3.24042 -1.13258,-1.60443 -2.42245,-3.11456 -3.49209,-4.75045 -1.16404,0.18855 -2.35952,0.40896 -3.52356,0.59772 0.0302,0.22042 0.12571,1.10111 0.22041,1.28989 1.06965,1.6359 2.35952,3.14601 3.49209,4.75049 0.69214,0.9438 1.35278,1.95051 1.82467,3.02014 0.56631,1.32134 0.91238,2.73705 1.38428,4.08986 0.15713,0.40896 0.50333,1.54154 0.91234,1.69884 0.0629,0.0301 0.0943,0.0301 0.15713,0.0301 1.16404,-0.22041 2.32804,-0.44048 3.49209,-0.62921 0.15712,-0.0301 0.31468,-0.34611 0.34611,-0.4719 0.22041,-0.59778 0.31469,-1.19551 0.44048,-1.82471 0.31468,-1.98197 0.4719,-3.99546 0.6292,-6.0089 1.03817,3.52355 2.23368,7.01564 3.46062,10.47625 0.4719,1.32135 0.97527,2.64265 1.3213,4.02689 0.15712,0.62925 -0.0943,1.47864 -0.56627,1.88765 -1.76177,-0.18856 -3.55498,-0.66067 -5.09656,-1.54158 0.22041,-0.15713 0.44048,-0.28326 0.66067,-0.40896 -0.0629,-0.44044 -0.15713,-0.8494 -0.21998,-1.25841 -1.16404,0.22041 -2.35951,0.40896 -3.52355,0.62921 -0.15713,0.0301 -0.6292,0.3461 -0.72361,0.44047 -0.18856,0.12571 -0.5348,0.40896 -0.50333,0.6292 0.0629,0.40897 0.15713,0.7865 0.21998,1.19547 0.0629,0.44047 1.00674,0.84944 1.41571,1.03822 1.44717,0.66066 3.05165,1.03816 4.65613,1.19546 0.66066,0.0302 1.35277,0.0302 2.0449,-0.0943 z"
         id="path25-7-0-0-7-8-0-8-2-7" /><path
         style="font-size:6.79133px;font-family:'Freedom Street';-inkscape-font-specification:'Freedom Street, Normal';baseline-shift:baseline;display:inline;overflow:visible;vector-effect:none;fill:#c68cf2;fill-opacity:1;stroke:#a661db;stroke-width:4.63241;stroke-linecap:round;stroke-linejoin:round;stroke-opacity:1;paint-order:stroke fill markers;enable-background:accumulate;stop-color:#000000"
         d="m 631.56937,537.11677 c 1.19547,-0.18899 2.39098,-0.40897 3.58644,-0.6292 0.59778,-0.0943 1.10111,-0.59774 1.44718,-1.10111 0.72361,-1.19551 1.00674,-2.67411 1.06964,-4.08982 0.15713,-2.57975 -0.31469,-5.1595 -0.75504,-7.70778 -0.31468,-1.73031 -0.66067,-3.52351 -1.4157,-5.09652 -0.7865,-1.57301 -1.91908,-2.95728 -3.17749,-4.18423 -0.0943,-0.0943 -0.28326,-0.25183 -0.37754,-0.22041 -1.164,0.18856 -2.35951,0.40897 -3.52355,0.62921 -0.0629,-0.28327 -0.0943,-0.5348 -0.15713,-0.81797 0,-0.0629 -0.0629,-0.0301 -0.1257,-0.0301 -1.164,0.22041 -2.32805,0.40896 -3.49204,0.6292 -0.44048,0.0629 -0.40897,0.88092 -0.47191,1.32134 -0.15713,1.13258 -0.31468,2.23368 -0.40896,3.3348 -0.15756,1.7303 -0.15756,3.49208 0,5.22239 0.0943,0.91234 0.25183,1.79324 0.40896,2.67411 0.44043,2.48534 1.69884,4.81343 3.20891,6.7954 0.88091,1.16405 2.76852,3.49209 4.18423,3.27185 z m -2.10785,-6.98417 c -0.81798,-1.35277 -1.51007,-2.83141 -1.85614,-4.40442 0,0 0,-0.0302 0,-0.0302 -0.25184,-1.95055 -0.25184,-3.96398 -0.0943,-5.91453 0.0943,-1.10111 0.25183,-2.17074 0.40897,-3.24038 0.0301,-0.31469 0.0629,-1.19551 0.31469,-1.35282 0,0.0629 -0.0943,0.40897 -0.0943,0.47191 0.0943,0.40896 0.15712,0.81797 0.21998,1.22697 0.37754,-0.0629 0.75503,-0.15712 1.1011,-0.2204 1.19551,1.25841 2.32805,2.64264 2.95725,4.24712 0.59777,1.6359 0.97527,3.36621 1.19551,5.0651 0.22041,1.54154 0.37754,3.08307 0.31469,4.62465 -0.0629,1.32131 -0.28326,2.70554 -0.94381,3.86958 -1.4157,-1.19546 -2.54827,-2.73705 -3.52355,-4.34148 z"
         id="path27-1-4-5-2-3-3-16-7" /><g
         id="text3-8-8-9-9-1-5-6-6-9-0-3"
         style="fill:#c68cf2;fill-opacity:1;stroke:#a661db;stroke-opacity:1"
         transform="matrix(4.6324061,0,0,4.6324061,377.80898,410.8875)"><path
           style="font-size:6.79133px;font-family:'Freedom Street';-inkscape-font-specification:'Freedom Street, Normal';baseline-shift:baseline;display:inline;overflow:visible;vector-effect:none;fill:#c68cf2;fill-opacity:1;stroke:#a661db;stroke-linecap:round;stroke-linejoin:round;stroke-opacity:1;paint-order:stroke fill markers;enable-background:accumulate;stop-color:#000000;stop-opacity:1"
           d="m 59.182487,24.563192 c -0.122244,-0.495767 -0.230905,-0.998325 -0.319192,-1.500884 -0.04075,-0.190157 -0.07471,-0.387106 -0.08829,-0.590846 0,-0.01358 0.02716,-0.0068 0.02716,-0.02037 -0.02037,-0.10187 -0.02716,-0.217323 -0.06791,-0.312402 -0.258071,0.04754 -0.50935,0.08829 -0.767421,0.135827 -0.0068,0.02717 0.0068,0.162992 0.0068,0.196948 0.04075,0.312402 0.10187,0.618012 0.1562,0.930413 0.10187,0.597637 0.230905,1.195274 0.380315,1.792911 -0.10187,0.01358 -0.20374,0.03396 -0.298819,0.04754 -0.0068,0.0815 -0.04754,0.162992 -0.09508,0.230905 -0.0747,0.10187 -0.156201,0.210532 -0.237697,0.312401 -0.08829,-0.522932 -0.224114,-1.045864 -0.373523,-1.555214 -0.176575,-0.604428 -0.366732,-1.208857 -0.584054,-1.799702 -0.02037,-0.05433 -0.02717,-0.115453 -0.05433,-0.162992 -0.258071,0.04754 -0.516141,0.08829 -0.76742,0.135826 0.0068,0.04075 0.04075,0.251279 0.05433,0.292027 0.224114,0.61122 0.421063,1.229231 0.604429,1.847242 0.129035,0.441437 0.264862,0.889664 0.346357,1.337892 0.04075,0.230905 0.05433,0.455019 0.07471,0.685924 0.0068,0.108662 0.03396,0.217323 0.05433,0.325984 0.0068,0.02717 0.01358,0.06112 0.04075,0.05433 0.251279,-0.04075 0.489587,-0.05234 0.72276,-0.197981 0.912938,-0.570208 1.521971,0.258134 1.618437,-0.104799 0.06303,-0.237129 0.137666,-0.684251 -0.432842,-2.08098 z"
           id="path29-4-0-2-0-9-9-8-1"
           sodipodi:nodetypes="ccccccccccccccccccccccssc" /></g><g
         id="g52-9-1-3-4-7"
         transform="matrix(5.5553696,0,0,5.9817173,323.54846,378.99263)"><path
           id="path43-9-6-4-9-7-4"
           style="fill:#f3e7d5;stroke-width:2.2;stroke-linecap:round;stroke-linejoin:round;paint-order:stroke fill markers"
           d="m 69.224848,22.322303 v 1.324467 h 0.888318 v 2.692342 h 0.958081 V 23.64677 h 1.310514 v -1.324467 z" /><path
           d="m 68.687596,21.831297 v 2.13734 h 0.71262 v 2.849958 h 2.13734 v -2.849958 h 1.42472 v -2.13734 z m 0.71262,0.71262 h 2.84995 v 0.71262 h -1.42523 v 2.849438 h -0.7121 v -2.849438 h -0.71262 z"
           style="font-size:5.69956px;font-family:RETRO_SPACE;-inkscape-font-specification:'RETRO_SPACE, Normal';fill:#1e1714;fill-opacity:1;stroke-width:0.474963"
           id="path34-8-0-4-1-3-7-3-5-6-8-8-9" /></g><g
         id="g748-4-1-6"
         transform="matrix(3.5078231,0,0,3.5078231,914.32689,301.9583)"><path
           id="rect741-9-06-7-9"
           style="fill:#000000;fill-opacity:1;stroke:none;stroke-width:0.0508095;stroke-linecap:round;stroke-linejoin:round;stroke-dasharray:none;stroke-opacity:1;paint-order:stroke fill markers"
           d="m -62.05776,56.897009 c -0.37951,-0.0034 -0.80472,0.08194 -1.27035,0.258054 -0.40076,0.151576 -0.72495,0.324309 -1.27635,0.680069 -0.54495,0.351603 -0.68675,0.432766 -1.26184,0.7222 -0.44187,0.222383 -0.59168,0.304129 -0.79536,0.433986 -0.84234,0.537029 -1.37266,1.309866 -1.51621,2.15791 v 0.944761 c 0.006,0.03704 0.0131,0.07411 0.0207,0.111197 0.0667,0.32398 0.15724,0.566205 0.391,1.046288 0.3398,0.697843 0.37564,0.89226 0.31112,1.688407 -0.0571,0.703463 -0.0402,1.107875 0.0649,1.561265 0.26667,1.149746 1.01401,2.059182 2.06762,2.516051 0.27728,0.120232 0.58804,0.208134 0.90911,0.259773 h 1.3507 c 0.96739,-0.143031 2.04544,-0.561558 3.10532,-1.210095 1.80128,-1.102194 2.36529,-2.179598 1.89605,-3.621954 -0.23711,-0.728849 -0.59441,-1.248888 -1.1558,-1.68226 -0.60301,-0.465492 -0.61726,-0.498176 -0.50814,-1.165293 0.11643,-0.711809 0.0903,-1.089246 -0.13757,-1.993006 -0.17231,-0.683135 -0.31334,-1.169333 -0.40975,-1.412629 -0.3365,-0.84915 -0.95028,-1.287076 -1.78522,-1.294724 z" /><g
           id="g747-3-0-8"
           transform="translate(-231.96666,46.51537)"><path
             id="rect741-9-2-4-4-0"
             style="fill:#15d718;fill-opacity:1;stroke:none;stroke-width:0.0451639;stroke-linecap:round;stroke-linejoin:round;stroke-dasharray:none;stroke-opacity:1;paint-order:stroke fill markers"
             d="m 170.32884,10.540257 c -0.33735,-0.003 -0.71531,0.07283 -1.1292,0.229381 -0.35623,0.134734 -0.6444,0.288274 -1.13453,0.604504 -0.4844,0.312535 -0.61045,0.38468 -1.12163,0.641954 -0.39277,0.197673 -0.52594,0.270336 -0.70699,0.385764 -0.74874,0.477358 -1.22013,1.164322 -1.34774,1.918138 v 0.839784 c 0.006,0.03292 0.0117,0.06588 0.0184,0.09884 0.0593,0.287982 0.13977,0.503292 0.34755,0.930031 0.30205,0.620304 0.33391,0.793118 0.27656,1.500802 -0.0507,0.625299 -0.0357,0.984776 0.0577,1.387788 0.23704,1.021994 0.90134,1.830379 1.83788,2.236484 0.24646,0.106872 0.5227,0.185007 0.8081,0.230909 h 1.20061 c 0.8599,-0.127139 1.81817,-0.499162 2.76028,-1.075638 1.60113,-0.979725 2.10247,-1.937415 1.68537,-3.219506 -0.21076,-0.647864 -0.52836,-1.11012 -1.02737,-1.495338 -0.53601,-0.41377 -0.54868,-0.442821 -0.45168,-1.035813 0.10349,-0.632718 0.0802,-0.968216 -0.12229,-1.771557 -0.15316,-0.607228 -0.27852,-1.039403 -0.36422,-1.255666 -0.29911,-0.754798 -0.84469,-1.144065 -1.58686,-1.150863 z" /><path
             d="m 170.27114,19.734889 c 0.75384,-0.29709 1.4596,-0.737027 2.05593,-1.275583 0.0653,-0.06363 0.33776,-0.275475 0.37039,-0.357751 0.0707,-0.211899 -0.024,-0.32371 -0.13493,-0.495298 -0.24208,-0.383548 -0.3972,-0.818304 -0.54147,-1.246847 -0.0434,-0.125769 -0.1513,-0.252331 -0.28873,-0.15068 -0.17547,0.130362 -0.36181,0.254509 -0.54194,0.367792 -0.43013,0.273121 -1.06136,0.683581 -1.53881,0.850338 -0.49686,0.162869 -0.93449,-0.433432 -0.40731,-0.788032 0.13121,-0.09079 0.26476,-0.17303 0.38046,-0.287108 0.1572,-0.179294 0.12662,-0.429753 0.11596,-0.658703 -0.0124,-0.129703 -0.19366,-0.006 -0.31602,-0.03786 -0.56752,0.04943 -0.53923,-0.246562 -0.6031,-0.332228 -0.0973,-0.130456 -0.21417,-0.281072 -0.20248,-0.440204 0.0163,-0.142053 0.16232,-0.24603 0.29971,-0.246765 0.12654,-0.007 0.24994,0.04199 0.35861,0.104125 0.21266,0.107187 0.38648,0.307516 0.50674,0.513263 0.19553,0.313669 0.26465,0.230628 0.53017,0.09408 0.14441,-0.07604 0.78877,-0.269913 0.94404,-0.339729 0.13199,-0.0543 0.18325,-0.169173 0.0848,-0.362493 -0.22652,-0.562083 -0.40178,-1.138127 -0.52581,-1.728126 -0.0171,-0.09626 -0.0512,-0.187873 -0.0512,-0.288787 -0.007,-0.02562 -0.005,-0.05357 -0.003,-0.08151 -7.5e-4,-0.03649 7.4e-4,-0.06443 0.009,-0.103242 0.009,-0.103242 0.0536,-0.207248 0.0171,-0.307396 -0.0667,-0.211166 -0.34386,-0.117318 -0.54648,-0.05294 -0.43087,0.135719 -0.84389,0.303276 -1.26545,0.473151 -0.10016,0.03645 -0.21193,0.03021 -0.30976,0.07521 -0.0575,0.02482 -0.10327,0.09234 -0.12347,0.152888 -0.0256,0.107895 0.031,0.248415 0.10469,0.384283 -0.16924,0.01858 -0.33382,0.05424 -0.50072,0.08136 -0.43629,0.08215 -0.87337,0.228739 -1.24373,0.485578 -0.22827,0.172265 -0.44491,0.387229 -0.57463,0.651899 -0.39456,0.740442 0.0763,1.795529 0.90764,2.018563 0.0497,0.01399 0.0994,0.02798 0.14671,0.03342 -0.0358,0.03724 -0.0606,0.08072 -0.0963,0.117966 -0.3114,0.405895 -0.50175,0.953108 -0.49492,1.483302 -0.002,0.128861 -7.4e-4,0.26626 0.0255,0.396681 0.0372,0.237548 0.13027,0.478219 0.25285,0.692506 0.16061,0.28649 0.40894,0.558257 0.7062,0.706611 0.29728,0.148355 0.63415,0.240053 0.96484,0.241703 0.5263,0.01257 1.05111,-0.148735 1.53012,-0.343433 z"
             id="text5-0-0-6-5-0-6-6-6-3"
             style="font-size:11.9344px;font-family:'Street Year';-inkscape-font-specification:'Street Year, Normal';fill:#a0f8a5;fill-opacity:1;stroke:none;stroke-width:0.737567;stroke-opacity:1"
             aria-label="E"
             sodipodi:nodetypes="cccccccccczcsccccccccccccccccccccccccccsccc" /></g></g><g
         id="g749-6-9-6"
         transform="matrix(4.660536,0,0,4.660536,997.71947,233.48445)"><path
           d="m -73.103138,59.241433 v 6.401106 h 4.245984 v -0.914636 h 0.84945 v -4.571837 h -0.84945 v -0.914633 z m 0.848825,0.914633 h 2.547717 v 0.914633 h 0.849442 v 0.913968 h -0.849442 V 62.8993 h 0.849442 v 0.914636 h -0.849442 v 0.913967 h -2.547717 z m 2.547717,3.65787 V 62.8993 h -1.698267 v 0.914636 z m 0,-1.829269 v -0.913968 h -1.698267 v 0.913968 z"
           style="font-size:5.69956px;font-family:RETRO_SPACE;-inkscape-font-specification:'RETRO_SPACE, Normal';fill:#1e1714;fill-opacity:1;stroke-width:0.587481"
           id="path30-1-7-0-8-8-7-1-9-1-1-53-6" /><path
           d="m -72.254313,60.156066 v 4.571839 h 2.547717 v -0.913969 h -1.698267 v -0.914635 h 1.698267 v -0.914632 h -1.698267 v -0.91397 h 1.698267 v -0.914633 z m 2.547717,0.914633 v 0.91397 l 0.968181,0.0055 0.0155,-0.919528 z m 0,1.828602 v 0.914635 h 0.849442 v -0.914635 z"
           style="fill:#f3e7d5;fill-opacity:1;stroke-width:0.779696;stroke-linecap:round;stroke-linejoin:round;paint-order:stroke fill markers"
           id="path31-8-8-0-9-0-5-9-4-4-7-2-5"
           sodipodi:nodetypes="ccccccccccccccccccccccc" /></g></g></g></svg>
