<?xml version="1.0" encoding="UTF-8" standalone="no"?>
<!-- Created with Inkscape (http://www.inkscape.org/) -->

<svg
   width="498.12573"
   height="459.6178"
   viewBox="0 0 131.79576 121.60721"
   version="1.1"
   id="svg1"
   xml:space="preserve"
   inkscape:version="1.4.4 (dcaf3e7, 2026-05-05)"
   sodipodi:docname="logo-study.svg"
   xmlns:inkscape="http://www.inkscape.org/namespaces/inkscape"
   xmlns:sodipodi="http://sodipodi.sourceforge.net/DTD/sodipodi-0.dtd"
   xmlns="http://www.w3.org/2000/svg"
   xmlns:svg="http://www.w3.org/2000/svg"><sodipodi:namedview
     id="namedview1"
     pagecolor="#ffffff"
     bordercolor="#000000"
     borderopacity="0.25"
     inkscape:showpageshadow="2"
     inkscape:pageopacity="0.0"
     inkscape:pagecheckerboard="0"
     inkscape:deskcolor="#d1d1d1"
     inkscape:document-units="mm"
     inkscape:export-bgcolor="#ffffff00"
     inkscape:zoom="0.33019663"
     inkscape:cx="1883.7261"
     inkscape:cy="1063.003"
     inkscape:window-width="1512"
     inkscape:window-height="921"
     inkscape:window-x="0"
     inkscape:window-y="33"
     inkscape:window-maximized="1"
     inkscape:current-layer="layer1"><inkscape:page
       x="0"
       y="0"
       width="131.79576"
       height="121.60721"
       id="page2"
       margin="0"
       bleed="0" /></sodipodi:namedview><defs
     id="defs1" /><g
     inkscape:label="Layer 1"
     inkscape:groupmode="layer"
     id="layer1"
     transform="translate(-595.16446,-373.24645)"><g
       id="g768"
       transform="translate(-1.7337053,22.538169)"
       inkscape:export-filename="g768.svg"
       inkscape:export-xdpi="96"
       inkscape:export-ydpi="96"><path
         style="font-size:6.79133px;font-family:'Freedom Street';-inkscape-font-specification:'Freedom Street, Normal';baseline-shift:baseline;display:inline;overflow:visible;vector-effect:none;fill:#000000;fill-opacity:1;stroke-width:8.3232;stroke-linecap:round;stroke-linejoin:round;paint-order:stroke fill markers;enable-background:accumulate;stop-color:#000000"
         d="m 628.44464,350.85576 c -1.90974,0.35966 -3.9644,0.68684 -6.17737,1.10545 a 9.1564329,9.1564329 0 0 0 -0.52017,0.1137 c -4.81255,1.20445 -6.26864,4.89245 -6.74633,6.40498 -0.33717,1.06755 -0.29478,1.60055 -0.32509,2.22707 a 9.1564329,9.1564329 0 0 0 -0.065,-0.0309 l 0.0487,-0.63425 c -0.0465,0.2653 -0.0294,0.38519 -0.065,0.63425 a 9.1564329,9.1564329 0 0 0 -3.69016,-1.62561 c -2.22435,0.36044 -4.36524,0.75568 -6.32368,1.07289 a 9.1564329,9.1564329 0 0 0 -7.59166,10.32279 c -0.0325,-0.2274 0.0487,0.53137 0.14634,1.2029 0.048,0.33569 0.11502,0.69072 0.21132,1.1705 0.0963,0.47956 -0.13258,0.66055 0.91034,2.74731 a 9.1564329,9.1564329 0 0 0 0.52024,0.9103 c 2.35454,3.60106 4.74668,6.39261 6.45373,8.81088 a 9.1564329,9.1564329 0 0 0 0.0975,0.12994 c 1.04519,1.42528 1.84385,2.71628 2.27588,3.69017 0.002,0.005 0.014,0.008 0.0171,0.0155 0.60872,1.44291 1.17997,3.72613 2.21086,6.68135 a 9.1564329,9.1564329 0 0 0 0.11377,0.25988 c -0.0673,-0.17635 0.26446,0.89561 0.81285,2.12953 0.27419,0.61723 0.60377,1.33293 1.28424,2.32468 0.13396,0.19491 0.77622,0.52751 0.94285,0.76419 -1.09928,1.13601 -2.76749,2.23271 -2.14581,6.58381 a 9.1564329,9.1564329 0 0 0 0,0.0975 c 0.18478,1.20151 0.34753,1.80606 0.39014,2.04823 0.90661,6.3476 4.04245,6.84324 5.31578,7.62422 1.27334,0.78098 2.23607,1.16709 2.4547,1.26795 a 9.1564329,9.1564329 0 0 0 0.0325,0.0155 c 3.72718,1.70156 7.57321,2.56252 11.28184,2.92612 a 9.1564329,9.1564329 0 0 0 0.45519,0.0309 c 1.48995,0.0696 3.4369,0.10829 5.73754,-0.30938 a 9.1564329,9.1564329 0 0 0 5.18575,-5.02318 l -5.12073,5.00693 c 1.90538,-0.36044 4.06249,-0.69072 6.33993,-1.1217 a 9.1564329,9.1564329 0 0 0 0.0816,-0.0154 c 2.33871,-0.46795 6.30978,-0.97001 9.26606,-6.29121 a 9.1564329,9.1564329 0 0 0 0.19508,-0.3411 c 2.09016,-4.18047 1.38082,-7.59064 1.0404,-9.46114 -0.17814,-0.97976 -0.36447,-2.37108 -0.76404,-4.12903 a 9.1564329,9.1564329 0 0 0 -0.0816,-0.3411 c -0.7498,-2.79488 -1.6849,-5.30458 -2.53596,-7.57541 l -0.0487,-0.16243 c -1.95148,-5.52169 -3.86221,-10.98899 -5.46177,-16.32086 a 9.1564329,9.1564329 0 0 0 -0.017,-0.0812 c -1.17241,-3.7836 -2.22751,-7.66412 -3.30002,-11.67196 v -0.0155 c -0.45372,-1.71572 -0.94969,-4.02686 -1.98327,-6.73007 l 0.42263,1.47934 c -0.16622,-0.83024 -0.27621,-1.56845 -1.10544,-3.08871 -0.41458,-0.76033 -0.99077,-1.80351 -2.55223,-3.02367 -1.56105,-1.21946 -4.79032,-2.37046 -7.62377,-1.80374 z M 615.716,397.82012 c -0.26608,0.17712 -0.61599,0.54994 -0.8941,0.76419 -0.24132,0.21657 -0.0719,-0.0387 -0.50398,0.38983 z m 0.30885,6.19359 c 0.13435,0.0696 0.31395,0.0542 0.48767,0.1137 0.19678,0.0866 0.1079,0.17636 0.32509,0.25989 z"
         id="path24-5-6-6-7-7-8-4" /><path
         style="font-size:6.79133px;font-family:'Freedom Street';-inkscape-font-specification:'Freedom Street, Normal';baseline-shift:baseline;display:inline;overflow:visible;vector-effect:none;fill:#000000;fill-opacity:1;stroke-width:8.3232;stroke-linecap:round;stroke-linejoin:round;paint-order:stroke fill markers;enable-background:accumulate;stop-color:#000000"
         d="m 690.12084,355.45631 c -2.02337,0.37281 -4.1162,0.71933 -6.3887,1.13793 -1.19709,0.69922 -2.21984,1.66057 -2.99116,2.81235 -1.60822,-1.7144 -3.8142,-2.74467 -6.16112,-2.8774 -1.99522,0.3674 -4.16005,0.70696 -6.43747,1.13794 -4.89274,0.92476 -8.14965,5.5899 -7.33156,10.50154 0.014,0.0843 0.1219,0.69922 0.22755,1.30052 0.10574,0.60176 -0.25934,0.0309 0.56897,2.51974 0.031,0.0874 0.0642,0.17404 0.0975,0.25989 1.77548,4.84218 3.35324,9.80007 4.84436,14.82565 1.08749,3.7201 2.10122,7.15943 2.64976,10.17644 0.21905,1.25977 0.33809,2.81336 0.52024,4.87684 l -0.017,-0.24365 c 0.12777,2.04144 0.48357,3.29423 0.5852,3.83651 0.0325,0.18022 0.0704,0.35889 0.11378,0.5368 -0.0155,-0.0619 -0.10504,0.52209 0.9266,2.43845 0.51583,0.9581 1.48288,2.48254 3.56013,3.69017 3.5669,2.48455 5.54164,0.93188 9.34675,-0.1052 3.03152,-1.4344 9.19826,-6.05352 14.91414,-0.76806 3.56582,3.29702 4.03499,1.27516 7.71124,0.71469 4.46515,-0.68065 1.93457,-2.244 3.26407,-3.29956 0.46246,-2.7712 1.18372,-3.06319 1.12953,-3.53207 -0.0542,-0.46873 -0.10806,-0.82251 -0.16251,-1.15418 -0.10906,-0.66364 -0.27049,-1.58508 -0.19507,-1.05672 -0.17148,-0.40994 -0.37243,-0.80627 -0.60153,-1.18666 -0.0426,-0.32254 -0.10217,-0.64275 -0.17875,-0.95911 -2.31958,-5.82472 -4.12681,-12.08476 -5.70595,-18.56462 -0.006,-0.005 -0.0108,-0.008 -0.017,-0.0155 -0.97507,-3.95447 -1.82642,-7.9531 -2.51972,-11.8996 -0.0201,-0.10906 -0.0418,-0.21734 -0.065,-0.32486 -0.23205,-1.08309 -0.36044,-2.0159 -0.45519,-2.92613 0.005,-0.0967 0.14634,-0.1485 0.14634,-0.24364 -7.2e-4,-0.60022 -0.0611,-1.19943 -0.17875,-1.7882 0.014,0.0696 0.12955,-1.50216 -1.12168,-4.42172 -1.68575,-3.93311 -5.87086,-6.17418 -10.07887,-5.39707 z m 18.87349,43.90813 c 0.44127,0.57623 0.92711,1.22023 0.92661,1.21922 -3.8e-4,-7.2e-4 0.15059,0.67293 0.26012,1.17042 -0.27675,-0.8502 -0.67657,-1.65531 -1.18671,-2.38964 z"
         id="path28-4-6-7-2-3-3-2"
         sodipodi:nodetypes="cccccssccccccccsscsscssccccccccccscccscc" /><path
         style="font-size:6.79133px;font-family:'Freedom Street';-inkscape-font-specification:'Freedom Street, Normal';baseline-shift:baseline;display:inline;overflow:visible;vector-effect:none;fill:#000000;fill-opacity:1;stroke-width:8.3232;stroke-linecap:round;stroke-linejoin:round;paint-order:stroke fill markers;enable-background:accumulate;stop-color:#000000"
         d="m 652.86152,356.05776 c -2.07745,-10e-4 -1.62855,0.0155 -0.16258,0.0155 a 9.1564329,9.1564329 0 0 0 -1.7069,0.16243 c -1.81007,0.34265 -3.78468,0.66905 -5.8685,1.05672 -2.96224,0.42309 -5.71329,2.67204 -6.82763,4.38916 -1.11435,1.71711 -1.33672,2.9047 -1.51183,3.75521 -0.35023,1.70095 -0.36222,2.60058 -0.27636,1.99951 a 9.1564329,9.1564329 0 0 0 0,0.0309 c -0.27946,2.01227 -0.58111,4.14691 -0.7803,6.46996 -0.32904,3.65119 -0.3319,7.33841 0,10.98922 a 9.1564329,9.1564329 0 0 0 0,0.1137 c 0.21463,2.07515 0.54639,3.89568 0.82907,5.47836 1.14499,6.44149 4.19135,11.7862 7.51039,16.14249 l -0.0325,-0.0155 c 0.91794,1.21297 2.38961,3.12283 4.50297,5.07191 2.11338,1.94915 5.01274,5.37015 11.73702,4.32418 a 9.1564329,9.1564329 0 0 0 0.0171,0 c 2.22456,-0.35115 4.35752,-0.75491 6.43747,-1.13793 5.24579,-0.82816 7.35786,-3.86444 8.71334,-5.83602 a 9.1564329,9.1564329 0 0 0 0.29261,-0.43856 c 2.47335,-4.08642 3.06105,-8.17068 3.21873,-11.63948 0.34991,-6.06063 -0.68754,-11.37943 -1.46306,-15.86604 a 9.1564329,9.1564329 0 0 0 -0.0171,-0.0619 c -0.57747,-3.17628 -1.24103,-7.20367 -3.30001,-11.49321 a 9.1564329,9.1564329 0 0 0 -0.065,-0.12995 c -2.01719,-4.03436 -4.71244,-7.26408 -7.46161,-9.94881 -0.42766,-0.42696 -0.80993,-0.77835 -1.69065,-1.36549 -0.45425,-0.30243 -1.01067,-0.68221 -2.12957,-1.08921 -1.11889,-0.40684 -3.09559,-1.12432 -6.17737,-0.0975 l 1.43055,-0.35734 c -0.62202,0.10055 -1.21748,0.21812 -1.83695,0.32486 -0.44243,-0.2305 -1.07042,-0.55226 -1.07292,-0.55304 -0.009,-0.002 -1.78903,-0.29237 -2.30838,-0.29237 z m -10.27394,30.54551 a 9.1564329,9.1564329 0 0 0 0.0487,0.45557 c 0.0232,0.20033 -0.0101,0.38442 0.017,0.58553 z"
         id="path26-5-66-8-4-8-7-3" /><path
         d="m 599.5786,408.73221 v 53.60116 h 35.55476 v -7.65895 h 7.11308 v -38.28334 h -7.11308 v -7.65887 z m 7.10784,7.65887 h 21.33392 v 7.65894 h 7.113 v 7.6533 h -7.113 v 7.65886 h 7.113 v 7.65894 h -7.113 v 7.6533 h -21.33392 z m 21.33392,30.63004 v -7.65894 h -14.22084 v 7.65894 z m 0,-15.3178 v -7.6533 h -14.22084 v 7.6533 z"
         style="font-size:5.69956px;font-family:RETRO_SPACE;-inkscape-font-specification:'RETRO_SPACE, Normal';fill:#000000;fill-opacity:1;stroke-width:4.91941"
         id="path30-1-7-0-8-8-7-1-9-1-62-1" /><path
         d="m 606.68644,416.39108 v 38.28342 h 21.33392 v -7.65338 h -14.22084 v -7.65886 h 14.22084 v -7.65894 h -14.22084 v -7.6533 h 14.22084 v -7.65894 z m 21.33392,7.65894 v 7.6533 l 8.10729,0.0464 0.12979,-7.69986 z m 0,15.31224 v 7.65886 h 7.113 v -7.65886 z"
         style="fill:#f8ead9;fill-opacity:1;stroke-width:6.52898;stroke-linecap:round;stroke-linejoin:round;paint-order:stroke fill markers"
         id="path31-8-8-0-9-0-5-9-4-4-98-2"
         sodipodi:nodetypes="ccccccccccccccccccccccc" /><path
         id="path43-9-6-4-5-1"
         style="fill:#f8ead9;fill-opacity:1;stroke-width:22.7864;stroke-linecap:round;stroke-linejoin:round;paint-order:stroke fill markers"
         d="m 691.38874,414.00924 v 14.23479 h 8.86676 v 28.93607 h 9.5631 v -28.93607 h 13.08089 v -14.23479 z" /><path
         d="m 686.02616,408.73213 v 22.97119 h 7.11302 v 30.63005 h 21.33389 v -30.63005 h 14.22087 v -22.97119 z m 7.11302,7.65895 h 28.4468 v 7.65894 h -14.22593 v 30.62448 h -7.10784 v -30.62448 h -7.11303 z"
         style="font-size:5.69956px;font-family:RETRO_SPACE;-inkscape-font-specification:'RETRO_SPACE, Normal';fill:#000000;fill-opacity:1;stroke-width:4.9194"
         id="path34-8-0-4-1-3-7-3-5-6-92-2" /><path
         id="rect741-9-5-5"
         style="fill:#000000;fill-opacity:1;stroke:none;stroke-width:0.320233;stroke-linecap:round;stroke-linejoin:round;stroke-dasharray:none;stroke-opacity:1;paint-order:stroke fill markers"
         d="m 670.76439,394.28944 c -2.39191,-0.0232 -5.07185,0.51668 -8.00654,1.62638 -2.52584,0.95532 -4.56908,2.04399 -8.04435,4.28621 -3.43461,2.21601 -4.32833,2.72758 -7.9529,4.55174 -2.78494,1.40161 -3.72913,1.91682 -5.01285,2.73532 -5.30895,3.38464 -8.65136,8.25552 -9.5561,13.60045 v 5.95445 c 0.0379,0.23358 0.0825,0.46718 0.13049,0.70076 0.42038,2.04198 0.99102,3.56859 2.46433,6.59441 2.14162,4.39821 2.36751,5.62355 1.96086,10.64138 -0.3599,4.43364 -0.25339,6.98247 0.40901,9.84007 1.68073,7.24637 6.39093,12.97821 13.03143,15.85769 1.74759,0.75802 3.7062,1.31182 5.72977,1.63722 h 8.51296 c 6.0971,-0.90141 12.89163,-3.53927 19.57165,-7.62677 11.3528,-6.94665 14.90753,-13.73713 11.95009,-22.82778 -1.49442,-4.59367 -3.74634,-7.87126 -7.28457,-10.60263 -3.80054,-2.93387 -3.89036,-3.13984 -3.20262,-7.34445 0.7338,-4.48623 0.56912,-6.86505 -0.86705,-12.56115 -1.086,-4.30554 -1.97486,-7.36982 -2.58249,-8.90322 -2.12084,-5.35191 -5.98927,-8.11198 -11.25157,-8.16016 z" /><path
         style="font-size:6.79133px;font-family:'Freedom Street';-inkscape-font-specification:'Freedom Street, Normal';baseline-shift:baseline;display:inline;overflow:visible;fill:#c68cf2;fill-opacity:1;stroke:#a661db;stroke-width:6.18781;stroke-linecap:round;stroke-linejoin:round;stroke-dasharray:none;stroke-opacity:1;paint-order:stroke fill markers;enable-background:accumulate;stop-color:#000000"
         d="m 658.86084,406.99803 c 2.14797,-0.33917 4.29594,-0.73488 6.44391,-1.13051 1.07399,-0.16955 1.97839,-1.074 2.60018,-1.97841 1.30009,-2.14797 1.80882,-4.80467 1.92187,-7.34832 0.28262,-4.63509 -0.56526,-9.27019 -1.35662,-13.84877 -0.56526,-3.1089 -1.18704,-6.33086 -2.54365,-9.15714 -1.41313,-2.82628 -3.44807,-5.3134 -5.70909,-7.5179 -0.16954,-0.16954 -0.5087,-0.45217 -0.67833,-0.39571 -2.09145,0.33917 -4.23942,0.73488 -6.33087,1.13051 -0.113,-0.50872 -0.16954,-0.96093 -0.28262,-1.46966 0,-0.113 -0.11301,-0.0565 -0.22616,-0.0565 -2.09145,0.39571 -4.1829,0.73488 -6.27435,1.13052 -0.79136,0.113 -0.73488,1.58271 -0.84788,2.37408 -0.28263,2.03492 -0.56525,4.01331 -0.73487,5.99171 -0.28264,3.1089 -0.28264,6.27433 0,9.38323 0.16954,1.63925 0.45217,3.22197 0.73487,4.80468 0.79138,4.46553 3.05238,8.64842 5.76561,12.20953 1.58273,2.09145 4.97425,6.27434 7.5179,5.87867 z m -3.78722,-12.54868 c -1.46966,-2.4306 -2.71323,-5.08731 -3.335,-7.91358 0,0 0,-0.0565 0,-0.0565 -0.45218,-3.50458 -0.45218,-7.12222 -0.16955,-10.62681 0.16955,-1.97839 0.45217,-3.90027 0.73488,-5.82214 0.0565,-0.56525 0.113,-2.14796 0.56525,-2.43059 0,0.113 -0.16955,0.73487 -0.16955,0.84788 0.16955,0.73488 0.28263,1.46967 0.39572,2.2045 0.67825,-0.113 1.3566,-0.28263 1.97838,-0.39571 2.14799,2.26102 4.1829,4.74814 5.31341,7.63095 1.07399,2.93933 1.75229,6.04823 2.14798,9.10062 0.39571,2.76974 0.67833,5.53951 0.56526,8.30926 -0.11301,2.37408 -0.50872,4.86119 -1.69577,6.95265 -2.54366,-2.14797 -4.57858,-4.91772 -6.33087,-7.80053 z"
         id="path27-1-4-5-2-3-1-6" /><path
         style="font-size:6.79133px;font-family:'Freedom Street';-inkscape-font-specification:'Freedom Street, Normal';baseline-shift:baseline;display:inline;overflow:visible;fill:#c68cf2;fill-opacity:1;stroke:#a661db;stroke-width:6.18781;stroke-linecap:round;stroke-linejoin:round;stroke-dasharray:none;stroke-opacity:1;paint-order:stroke fill markers;enable-background:accumulate;stop-color:#000000"
         d="m 695.50869,384.64206 c -1.01747,-4.12637 -1.92187,-8.30926 -2.6567,-12.49216 -0.33917,-1.58271 -0.62183,-3.22195 -0.73485,-4.91772 0,-0.11303 0.22605,-0.0566 0.22605,-0.16955 -0.16955,-0.84788 -0.22605,-1.80882 -0.56523,-2.60018 -2.14797,0.39568 -4.23942,0.73486 -6.38739,1.13051 -0.0566,0.22615 0.0566,1.35662 0.0566,1.63924 0.33917,2.60019 0.84788,5.14384 1.30008,7.74401 0.84788,4.97426 1.92187,9.9485 3.16544,14.92275 -0.84788,0.11304 -1.69577,0.28266 -2.48713,0.39569 -0.0566,0.67834 -0.39568,1.35661 -0.79136,1.92187 -0.62175,0.84788 -1.3001,1.7523 -1.97841,2.60017 -0.73486,-4.35246 -1.86534,-8.70493 -3.1089,-12.94435 -1.46968,-5.03078 -3.05239,-10.06156 -4.8612,-14.97928 -0.16954,-0.45219 -0.22614,-0.96093 -0.4522,-1.35661 -2.14798,0.39569 -4.29594,0.73486 -6.38739,1.13051 0.0566,0.33917 0.33917,2.09144 0.4522,2.4306 1.86535,5.0873 3.50459,10.23112 5.03078,15.37495 1.07398,3.67417 2.2045,7.40485 2.8828,11.13554 0.33917,1.92187 0.4522,3.78721 0.62183,5.70909 0.0566,0.90441 0.28265,1.80882 0.45219,2.71322 0.0566,0.22614 0.11304,0.50872 0.33917,0.4522 2.09145,-0.33917 4.07493,-0.43564 6.01568,-1.64784 7.59856,-4.74595 12.66767,2.1485 13.47057,-0.87226 0.52461,-1.97366 1.14582,-5.69515 -3.60263,-17.3204 z"
         id="path29-4-0-2-0-9-42-4"
         sodipodi:nodetypes="ccccccccccccccccccccccssc" /><path
         id="rect741-9-2-636-8"
         style="fill:#15d718;fill-opacity:1;stroke:none;stroke-width:0.284651;stroke-linecap:round;stroke-linejoin:round;stroke-dasharray:none;stroke-opacity:1;paint-order:stroke fill markers"
         d="m 673.41107,395.28908 c -2.1262,-0.0155 -4.50834,0.45867 -7.11693,1.44569 -2.24519,0.84921 -4.06141,1.8169 -7.15051,3.80998 -3.05299,1.96981 -3.84743,2.42446 -7.06921,4.04597 -2.47548,1.24591 -3.3148,1.70389 -4.45589,2.43134 -4.71902,3.00858 -7.69001,7.33826 -8.49429,12.08933 v 5.2928 c 0.0379,0.2073 0.0735,0.41536 0.11594,0.62265 0.37374,1.81504 0.88092,3.1721 2.19048,5.86162 1.90371,3.9096 2.10451,4.99873 1.74305,9.45906 -0.31952,3.941 -0.22501,6.20666 0.36369,8.74667 1.49397,6.44127 5.68081,11.53622 11.58346,14.09572 1.55334,0.6737 3.29438,1.16602 5.09315,1.4553 h 7.56699 c 5.41963,-0.80132 11.45924,-3.14603 17.397,-6.77935 10.09133,-6.1748 13.25109,-12.21077 10.62225,-20.29133 -1.32833,-4.08317 -3.33005,-6.99661 -6.47512,-9.42455 -3.37827,-2.60777 -3.45812,-2.79093 -2.84677,-6.52828 0.65227,-3.9878 0.50547,-6.10233 -0.77077,-11.16549 -0.96531,-3.82715 -1.7554,-6.55094 -2.29554,-7.91396 -1.88518,-4.75725 -5.32376,-7.21064 -10.00138,-7.25348 z" /><path
         d="m 673.0474,453.2394 c 4.75117,-1.87243 9.19931,-4.64526 12.95775,-8.03957 0.41157,-0.40143 2.12878,-1.73614 2.33443,-2.25476 0.4456,-1.33548 -0.15129,-2.0402 -0.85041,-3.12167 -1.52574,-2.41733 -2.50341,-5.15744 -3.41268,-7.85842 -0.2735,-0.79265 -0.9536,-1.59034 -1.81976,-0.94967 -1.10592,0.82166 -2.28035,1.60411 -3.41564,2.3181 -2.71095,1.72137 -6.68935,4.30834 -9.69854,5.35933 -3.13152,1.02647 -5.88974,-2.73175 -2.56712,-4.96663 0.82697,-0.57237 1.66868,-1.0906 2.3979,-1.80954 0.99077,-1.13005 0.79803,-2.70856 0.73086,-4.15155 -0.0781,-0.81749 -1.22057,-0.0387 -1.99175,-0.23823 -3.57688,0.31171 -3.39858,-1.55399 -3.80112,-2.09395 -0.61321,-0.8222 -1.34983,-1.77149 -1.27616,-2.77445 0.10272,-0.8953 1.02305,-1.55059 1.88897,-1.55523 0.79753,-0.0464 1.57527,0.26453 2.26017,0.65668 1.34032,0.67525 2.43585,1.93817 3.1938,3.2349 1.23235,1.97693 1.66799,1.45352 3.34146,0.59326 0.91016,-0.47955 4.97132,-1.70118 5.94992,-2.14121 0.83189,-0.34265 1.15496,-1.06624 0.53448,-2.28461 -1.42767,-3.54259 -2.53227,-7.1732 -3.31398,-10.89176 -0.10775,-0.6064 -0.3227,-1.18411 -0.3227,-1.82013 -0.0441,-0.16166 -0.0318,-0.33802 -0.0186,-0.51359 -0.004,-0.22973 0.004,-0.40608 0.0565,-0.6505 0.0565,-0.65049 0.33777,-1.30616 0.10774,-1.93739 -0.42038,-1.33085 -2.16722,-0.73945 -3.44426,-0.33338 -2.71561,0.85539 -5.31871,1.91149 -7.97566,2.98214 -0.63122,0.22972 -1.3357,0.19027 -1.95229,0.47413 -0.36237,0.15625 -0.65088,0.58166 -0.77819,0.9636 -0.16134,0.67989 0.19539,1.56567 0.65986,2.42198 -1.06665,0.11679 -2.10394,0.34188 -3.15585,0.51281 -2.74977,0.51746 -5.50452,1.44168 -7.83876,3.06041 -1.4387,1.08573 -2.8041,2.44054 -3.62168,4.1087 -2.48676,4.66667 0.48088,11.31654 5.72051,12.72226 0.31326,0.0882 0.62652,0.17635 0.92466,0.21038 -0.22562,0.23436 -0.38194,0.50895 -0.60694,0.74332 -1.96265,2.55818 -3.16235,6.00702 -3.11931,9.34866 -0.0124,0.81215 -0.004,1.67813 0.16074,2.50011 0.23443,1.49721 0.82104,3.01408 1.59362,4.36464 1.01225,1.80559 2.57739,3.51845 4.45091,4.45351 1.87364,0.93497 3.9968,1.51291 6.08101,1.52336 3.31707,0.0789 6.62476,-0.93745 9.64378,-2.16458 z"
         id="text5-0-0-6-5-0-6-91-0"
         style="font-size:11.9344px;font-family:'Street Year';-inkscape-font-specification:'Street Year, Normal';fill:#a0f8a5;fill-opacity:1;stroke:none;stroke-width:4.6486;stroke-opacity:1"
         aria-label="E"
         sodipodi:nodetypes="cccccccccczcsccccccccccccccccccccccccccsccc" /><path
         style="font-size:6.79133px;font-family:'Freedom Street';-inkscape-font-specification:'Freedom Street, Normal';baseline-shift:baseline;display:inline;overflow:visible;vector-effect:none;fill:#a0f8a5;fill-opacity:1;stroke:#a661db;stroke-width:8.3232;stroke-linecap:round;stroke-linejoin:round;stroke-opacity:1;paint-order:stroke fill markers;enable-background:accumulate;stop-color:#000000"
         d="m 634.99186,413.1421 c 2.09145,-0.39602 4.23942,-0.7348 6.33087,-1.13051 1.13051,-0.22586 2.48713,-0.7348 3.05238,-1.75223 0.56526,-1.13051 0.45217,-2.48719 0.22609,-3.7307 -0.22609,-1.24359 -0.39571,-2.48711 -0.67834,-3.7307 -0.62172,-2.31756 -1.46967,-4.63512 -2.31754,-6.89614 -1.97841,-5.59601 -3.9568,-11.24856 -5.65256,-16.90111 -1.24358,-4.01332 -2.31755,-8.02665 -3.39154,-12.03998 -0.50871,-1.92185 -0.96095,-3.90024 -1.69576,-5.82209 -0.0565,-0.28232 -0.22617,-0.79142 -0.50872,-0.73481 -2.09145,0.39602 -4.1829,0.73481 -6.27435,1.13051 -0.22616,0.0541 -0.28263,0.45249 -0.28263,0.67834 -0.16954,0.96089 -0.22616,1.92185 -0.28262,2.88282 -0.39571,5.99164 -0.73488,11.98336 -1.30009,17.91854 -0.84788,-2.0914 -2.14798,-3.95679 -3.44806,-5.8221 -2.03492,-2.88282 -4.35247,-5.59601 -6.27434,-8.53537 -2.09145,0.33956 -4.23942,0.7348 -6.33086,1.07397 0.0565,0.39602 0.22616,1.9784 0.39571,2.31756 1.92186,2.93936 4.23942,5.65256 6.27434,8.53537 1.24355,1.69577 2.4306,3.50462 3.27848,5.42646 1.01746,2.37411 1.63924,4.91768 2.48712,7.34832 0.28263,0.7348 0.90442,2.76974 1.63925,3.05236 0.113,0.0542 0.16955,0.0542 0.28262,0.0542 2.09145,-0.39602 4.1829,-0.79134 6.27435,-1.13051 0.28262,-0.0542 0.56525,-0.62187 0.62179,-0.84788 0.39571,-1.07397 0.56526,-2.14794 0.79137,-3.27846 0.56525,-3.56114 0.84787,-7.17876 1.13051,-10.79638 1.86534,6.33081 4.01331,12.60516 6.2178,18.82296 0.84789,2.3741 1.7523,4.74821 2.37408,7.23532 0.28263,1.13051 -0.16954,2.65673 -1.01746,3.39152 -3.16543,-0.33878 -6.38739,-1.18704 -9.15713,-2.76973 0.3957,-0.28232 0.79136,-0.50894 1.18703,-0.7348 -0.113,-0.79142 -0.28263,-1.52622 -0.39572,-2.26102 -2.09143,0.39602 -4.2394,0.7348 -6.33085,1.13051 -0.28263,0.0542 -1.13051,0.62188 -1.30009,0.79134 -0.33917,0.22586 -0.96093,0.7348 -0.9044,1.13051 0.113,0.7348 0.28263,1.41314 0.39571,2.14802 0.113,0.79134 1.80882,1.52614 2.54366,1.86531 2.60017,1.18705 5.48297,1.86539 8.36579,2.14802 1.18702,0.0542 2.43059,0.0542 3.67415,-0.1694 z"
         id="path25-3-7-9-1-7-9-1" /><path
         style="font-size:6.79133px;font-family:'Freedom Street';-inkscape-font-specification:'Freedom Street, Normal';baseline-shift:baseline;display:inline;overflow:visible;fill:#c68cf2;fill-opacity:1;stroke:#a661db;stroke-width:6.18781;stroke-linecap:round;stroke-linejoin:round;stroke-dasharray:none;stroke-opacity:1;paint-order:stroke fill markers;enable-background:accumulate;stop-color:#000000"
         d="m 634.99186,413.1421 c 2.09145,-0.39602 4.23942,-0.7348 6.33087,-1.13051 1.13051,-0.22586 2.48713,-0.7348 3.05238,-1.75223 0.56526,-1.13051 0.45217,-2.48719 0.22609,-3.7307 -0.22609,-1.24359 -0.39571,-2.48711 -0.67834,-3.7307 -0.62172,-2.31756 -1.46967,-4.63512 -2.31754,-6.89614 -1.97841,-5.59601 -3.9568,-11.24856 -5.65256,-16.90111 -1.24358,-4.01332 -2.31755,-8.02665 -3.39154,-12.03998 -0.50871,-1.92185 -0.96095,-3.90024 -1.69576,-5.82209 -0.0565,-0.28232 -0.22617,-0.79142 -0.50872,-0.73481 -2.09145,0.39602 -4.1829,0.73481 -6.27435,1.13051 -0.22616,0.0541 -0.28263,0.45249 -0.28263,0.67834 -0.16954,0.96089 -0.22616,1.92185 -0.28262,2.88282 -0.39571,5.99164 -0.73488,11.98336 -1.30009,17.91854 -0.84788,-2.0914 -2.14798,-3.95679 -3.44806,-5.8221 -2.03492,-2.88282 -4.35247,-5.59601 -6.27434,-8.53537 -1.2406,0.20111 -2.50111,0.42232 -3.7579,0.63967 -0.86193,0.14928 -1.72213,0.29624 -2.57296,0.43469 0.0565,0.39602 0.22616,1.97839 0.39571,2.31756 1.92186,2.93928 4.23942,5.65255 6.27434,8.53537 1.24355,1.69577 2.4306,3.50453 3.27848,5.42646 1.01746,2.37403 1.63924,4.91768 2.48712,7.34832 0.28263,0.7348 0.90442,2.76974 1.63925,3.05236 0.113,0.0542 0.16955,0.0542 0.28262,0.0542 2.09145,-0.39602 4.1829,-0.79134 6.27435,-1.13051 0.28262,-0.0542 0.56525,-0.62187 0.62179,-0.84788 0.39571,-1.07397 0.56526,-2.14802 0.79137,-3.27853 0.56525,-3.56107 0.84787,-7.17869 1.13051,-10.79638 1.86534,6.33088 4.01331,12.60523 6.2178,18.82304 0.84789,2.3741 1.7523,4.74812 2.37408,7.23531 0.28263,1.13051 -0.16954,2.65665 -1.01746,3.39153 -3.16543,-0.33878 -6.38739,-1.18705 -9.15713,-2.76981 0.3957,-0.28232 0.79136,-0.50895 1.18703,-0.7348 -0.113,-0.79135 -0.28263,-1.52615 -0.39572,-2.26102 -2.09143,0.39602 -4.2394,0.73479 -6.33085,1.13059 -0.28263,0.0542 -1.13051,0.62187 -1.30009,0.79133 -0.33917,0.22586 -0.96093,0.73481 -0.9044,1.13052 0.113,0.73479 0.28263,1.41313 0.39571,2.14793 0.113,0.79142 1.80882,1.52622 2.54366,1.8654 2.60017,1.18704 5.48297,1.8653 8.36579,2.14793 1.18702,0.0542 2.43059,0.0542 3.67415,-0.16939 z"
         id="path25-7-0-0-7-8-0-41-0"
         sodipodi:nodetypes="sccsccccccccccccsccccccccccccsccccccccccss" /></g></g></svg>
