<?xml version="1.0" encoding="UTF-8" standalone="no"?>
<!-- Created with Inkscape (http://www.inkscape.org/) -->

<svg
   width="498.12561"
   height="165.84485"
   viewBox="0 0 131.79573 43.879783"
   version="1.1"
   id="svg1"
   xml:space="preserve"
   inkscape:version="1.4.4 (dcaf3e7, 2026-05-05)"
   sodipodi:docname="logo-study.svg"
   xmlns:inkscape="http://www.inkscape.org/namespaces/inkscape"
   xmlns:sodipodi="http://sodipodi.sourceforge.net/DTD/sodipodi-0.dtd"
   xmlns="http://www.w3.org/2000/svg"
   xmlns:svg="http://www.w3.org/2000/svg"><sodipodi:namedview
     id="namedview1"
     pagecolor="#ffffff"
     bordercolor="#000000"
     borderopacity="0.25"
     inkscape:showpageshadow="2"
     inkscape:pageopacity="0.0"
     inkscape:pagecheckerboard="0"
     inkscape:deskcolor="#d1d1d1"
     inkscape:document-units="mm"
     inkscape:export-bgcolor="#ffffff00"
     inkscape:zoom="0.33019663"
     inkscape:cx="1883.7261"
     inkscape:cy="1063.003"
     inkscape:window-width="1512"
     inkscape:window-height="921"
     inkscape:window-x="0"
     inkscape:window-y="33"
     inkscape:window-maximized="1"
     inkscape:current-layer="layer1"><inkscape:page
       x="0"
       y="0"
       width="131.79573"
       height="43.879784"
       id="page2"
       margin="0"
       bleed="0" /></sodipodi:namedview><defs
     id="defs1" /><g
     inkscape:label="Layer 1"
     inkscape:groupmode="layer"
     id="layer1"
     transform="translate(-443.4225,-496.94391)"><g
       id="g766"
       transform="matrix(4.3048929,0,0,4.3048929,368.92899,-208.54648)"><path
         style="font-size:6.79133px;font-family:'Freedom Street';-inkscape-font-specification:'Freedom Street, Normal';baseline-shift:baseline;display:inline;overflow:visible;vector-effect:none;fill:#1e1714;stroke-width:1.07608;stroke-linecap:round;stroke-linejoin:round;paint-order:stroke fill markers;enable-background:accumulate;stop-color:#000000"
         d="m 21.382433,164.88627 c -0.2469,0.0465 -0.51254,0.0888 -0.79865,0.14292 a 1.1838056,1.1838056 0 0 0 -0.0673,0.0147 c -0.6222,0.15572 -0.81046,0.63252 -0.87222,0.82807 -0.0436,0.13803 -0.0381,0.20694 -0.042,0.28794 a 1.1838056,1.1838056 0 0 0 -0.008,-0.004 l 0.006,-0.082 c -0.006,0.0343 -0.004,0.0498 -0.008,0.082 a 1.1838056,1.1838056 0 0 0 -0.47708,-0.21017 c -0.28758,0.0466 -0.56437,0.0977 -0.81757,0.13871 a 1.1838056,1.1838056 0 0 0 -0.9815,1.33459 c -0.004,-0.0294 0.006,0.0687 0.0189,0.15553 0.006,0.0434 0.0149,0.0893 0.0273,0.15132 0.0125,0.062 -0.0171,0.0855 0.1177,0.35519 a 1.1838056,1.1838056 0 0 0 0.0673,0.1177 c 0.30441,0.46557 0.61368,0.82647 0.83438,1.13913 a 1.1838056,1.1838056 0 0 0 0.0126,0.0168 c 0.13513,0.18427 0.23838,0.35117 0.29424,0.47709 2.9e-4,6.5e-4 0.002,0.002 0.002,0.002 0.0787,0.18654 0.15255,0.48173 0.28583,0.86381 a 1.1838056,1.1838056 0 0 0 0.0147,0.0336 c -0.009,-0.0228 0.0342,0.11579 0.10509,0.27532 0.0355,0.0798 0.0781,0.17233 0.16604,0.30055 0.0173,0.0253 0.10036,0.0682 0.1219,0.0988 -0.14212,0.14687 -0.3578,0.28865 -0.27743,0.85119 a 1.1838056,1.1838056 0 0 0 0,0.0126 c 0.0239,0.15535 0.0449,0.2335 0.0504,0.26482 0.11721,0.82065 0.52264,0.88473 0.68726,0.9857 0.16463,0.10097 0.28909,0.15089 0.31736,0.16394 a 1.1838056,1.1838056 0 0 0 0.004,0.002 c 0.48187,0.21998 0.97911,0.3313 1.45859,0.37831 a 1.1838056,1.1838056 0 0 0 0.0589,0.004 c 0.19263,0.009 0.44434,0.014 0.74179,-0.04 a 1.1838056,1.1838056 0 0 0 0.67044,-0.64944 l -0.66204,0.64733 c 0.24634,-0.0466 0.52523,-0.0893 0.81967,-0.14502 a 1.1838056,1.1838056 0 0 0 0.0105,-0.002 c 0.30236,-0.0605 0.81577,-0.1254 1.19798,-0.81336 a 1.1838056,1.1838056 0 0 0 0.0252,-0.0441 c 0.27023,-0.54048 0.17852,-0.98138 0.13451,-1.2232 -0.023,-0.12667 -0.0471,-0.30655 -0.0988,-0.53383 a 1.1838056,1.1838056 0 0 0 -0.0105,-0.0441 c -0.0969,-0.36135 -0.21784,-0.68581 -0.32787,-0.9794 l -0.006,-0.021 c -0.2523,-0.71389 -0.49933,-1.42074 -0.70613,-2.11007 a 1.1838056,1.1838056 0 0 0 -0.002,-0.0105 c -0.15158,-0.48918 -0.28799,-0.99087 -0.42665,-1.50903 v -0.002 c -0.0587,-0.22182 -0.12278,-0.52063 -0.25641,-0.87011 l 0.0546,0.19125 c -0.0215,-0.10734 -0.0357,-0.20277 -0.14291,-0.39932 -0.0536,-0.0983 -0.1281,-0.23318 -0.32997,-0.39092 -0.20183,-0.15766 -0.61933,-0.30647 -0.98566,-0.23321 z m -1.64564,6.07186 c -0.0344,0.0229 -0.0796,0.0712 -0.1156,0.0988 -0.0312,0.028 -0.009,-0.005 -0.0651,0.0504 z m 0.0399,0.80076 c 0.0174,0.009 0.0406,0.007 0.0631,0.0147 0.0254,0.0112 0.014,0.0228 0.042,0.0336 z"
         id="path24-5-6-6-7-7-4-0" /><path
         style="font-size:6.79133px;font-family:'Freedom Street';-inkscape-font-specification:'Freedom Street, Normal';baseline-shift:baseline;display:inline;overflow:visible;vector-effect:none;fill:#1e1714;stroke-width:1.07608;stroke-linecap:round;stroke-linejoin:round;paint-order:stroke fill markers;enable-background:accumulate;stop-color:#000000"
         d="m 29.356353,165.48106 c -0.261595,0.0482 -0.532169,0.093 -0.82598,0.14712 -0.15476,0.0904 -0.28699,0.21468 -0.38671,0.36359 -0.20792,-0.22165 -0.49313,-0.35484 -0.79655,-0.372 -0.25796,0.0475 -0.53784,0.0914 -0.83228,0.14712 -0.63257,0.11955 -1.05365,0.72269 -0.94788,1.35771 0.002,0.011 0.0158,0.0904 0.0294,0.16814 0.0137,0.0778 -0.0335,0.004 0.0736,0.32576 0.004,0.0113 0.008,0.0225 0.0126,0.0336 0.22954,0.62604 0.43353,1.26702 0.62631,1.91677 0.1406,0.48096 0.27166,0.92561 0.34258,1.31567 0.0283,0.16288 0.0437,0.36374 0.0673,0.63052 l -0.002,-0.0315 c 0.0165,0.26392 0.0625,0.4259 0.0757,0.496 0.004,0.0233 0.009,0.0464 0.0147,0.0694 -0.002,-0.008 -0.0136,0.0675 0.1198,0.31526 0.0667,0.12387 0.19171,0.32097 0.46027,0.47709 0.46116,0.32122 0.71646,0.12048 1.208415,-0.0136 0.391935,-0.18544 1.189214,-0.78264 1.928201,-0.0994 0.461013,0.42627 0.521671,0.16487 0.996961,0.0924 0.577285,-0.088 0.250114,-0.29012 0.422001,-0.42658 0.05979,-0.35828 0.153039,-0.39603 0.146033,-0.45666 -0.007,-0.0606 -0.01397,-0.10633 -0.02102,-0.14922 -0.0141,-0.0858 -0.03497,-0.20492 -0.02522,-0.13661 -0.02217,-0.053 -0.04815,-0.10424 -0.07777,-0.15343 -0.0055,-0.0417 -0.01321,-0.0831 -0.02311,-0.124 -0.299891,-0.75305 -0.533542,-1.56239 -0.737703,-2.40016 -7.17e-4,-7.2e-4 -0.0014,-0.001 -0.0022,-0.002 -0.126064,-0.51125 -0.236132,-1.02823 -0.325766,-1.53845 -0.0026,-0.0141 -0.0054,-0.0281 -0.0084,-0.042 -0.03,-0.14003 -0.04659,-0.26063 -0.05885,-0.37831 6.8e-4,-0.0125 0.01892,-0.0192 0.01892,-0.0315 -1.05e-4,-0.0776 -0.0079,-0.15507 -0.02311,-0.23119 0.0018,0.009 0.01675,-0.19422 -0.145018,-0.57167 -0.217945,-0.5085 -0.759024,-0.79824 -1.303065,-0.69777 z m 2.440093,5.67673 c 0.05705,0.0745 0.119862,0.15777 0.119798,0.15763 -4.9e-5,-10e-5 0.01947,0.087 0.03363,0.15133 -0.03578,-0.10992 -0.08747,-0.21401 -0.153426,-0.30896 z"
         id="path28-4-6-7-2-3-8-4"
         sodipodi:nodetypes="cccccssccccccccsscsscssccccccccccscccscc" /><path
         style="font-size:6.79133px;font-family:'Freedom Street';-inkscape-font-specification:'Freedom Street, Normal';baseline-shift:baseline;display:inline;overflow:visible;vector-effect:none;fill:#1e1714;stroke-width:1.07608;stroke-linecap:round;stroke-linejoin:round;paint-order:stroke fill markers;enable-background:accumulate;stop-color:#000000"
         d="m 24.539213,165.55882 c -0.26858,-1.3e-4 -0.21055,0.002 -0.021,0.002 a 1.1838056,1.1838056 0 0 0 -0.22068,0.021 c -0.23402,0.0443 -0.48931,0.0865 -0.75872,0.13661 -0.38298,0.0547 -0.73865,0.34546 -0.88272,0.56746 -0.14407,0.22201 -0.17282,0.37554 -0.19546,0.4855 -0.0453,0.21992 -0.0468,0.33623 -0.0357,0.25851 a 1.1838056,1.1838056 0 0 0 0,0.004 c -0.0361,0.26016 -0.0751,0.53615 -0.10088,0.83649 -0.0425,0.47204 -0.0429,0.94876 0,1.42076 a 1.1838056,1.1838056 0 0 0 0,0.0147 c 0.0277,0.26829 0.0706,0.50365 0.10719,0.70828 0.14803,0.83279 0.54188,1.5238 0.97099,2.087 l -0.004,-0.002 c 0.11868,0.15683 0.30895,0.40374 0.58218,0.65574 0.27323,0.25199 0.64808,0.69429 1.51744,0.55905 a 1.1838056,1.1838056 0 0 0 0.002,0 c 0.28761,-0.0454 0.56337,-0.0976 0.83228,-0.14712 0.67821,-0.10707 0.95128,-0.49961 1.12652,-0.75451 a 1.1838056,1.1838056 0 0 0 0.0378,-0.0567 c 0.31977,-0.52832 0.39575,-1.05636 0.41614,-1.50483 0.0452,-0.78357 -0.0889,-1.47121 -0.18916,-2.05128 a 1.1838056,1.1838056 0 0 0 -0.002,-0.008 c -0.0747,-0.41065 -0.16045,-0.93133 -0.42665,-1.48591 a 1.1838056,1.1838056 0 0 0 -0.008,-0.0168 c -0.2608,-0.5216 -0.60926,-0.93916 -0.96469,-1.28625 -0.0553,-0.0552 -0.10471,-0.10064 -0.21858,-0.17655 -0.0587,-0.0392 -0.13066,-0.0882 -0.27532,-0.14081 -0.14466,-0.0526 -0.40022,-0.14536 -0.79866,-0.0126 l 0.18496,-0.0462 c -0.0804,0.013 -0.15741,0.0282 -0.2375,0.042 -0.0572,-0.0297 -0.13839,-0.0714 -0.13871,-0.0715 -0.001,-2.9e-4 -0.2313,-0.0378 -0.29845,-0.0378 z m -1.32828,3.94913 a 1.1838056,1.1838056 0 0 0 0.006,0.0589 c 0.003,0.0259 -0.001,0.0497 0.002,0.0757 z"
         id="path26-5-66-8-4-8-1-5" /><path
         style="font-size:6.79133px;font-family:'Freedom Street';-inkscape-font-specification:'Freedom Street, Normal';baseline-shift:baseline;display:inline;overflow:visible;vector-effect:none;fill:#ed7470;stroke-width:1.07608;stroke-linecap:round;stroke-linejoin:round;paint-order:stroke fill markers;enable-background:accumulate;stop-color:#000000"
         d="m 22.228903,172.93907 c 0.2704,-0.0512 0.5481,-0.095 0.8185,-0.14616 0.14616,-0.0292 0.32155,-0.095 0.39463,-0.22655 0.0731,-0.14616 0.0585,-0.32155 0.0292,-0.48233 -0.0292,-0.16077 -0.0512,-0.32155 -0.0877,-0.48233 -0.0804,-0.29962 -0.19001,-0.59925 -0.29963,-0.89157 -0.25578,-0.7235 -0.51156,-1.4543 -0.7308,-2.1851 -0.16078,-0.51887 -0.29963,-1.03774 -0.43848,-1.5566 -0.0658,-0.24848 -0.12424,-0.50426 -0.21924,-0.75273 -0.007,-0.0365 -0.0292,-0.10231 -0.0658,-0.095 -0.2704,0.0512 -0.54079,0.095 -0.81119,0.14616 -0.0292,0.007 -0.0365,0.0585 -0.0365,0.0877 -0.0219,0.12424 -0.0292,0.24847 -0.0365,0.37271 -0.0512,0.77465 -0.095,1.5493 -0.16808,2.31664 -0.10962,-0.2704 -0.27771,-0.51156 -0.44579,-0.75273 -0.26309,-0.3727 -0.56272,-0.72349 -0.81119,-1.1035 -0.2704,0.0438 -0.5481,0.095 -0.8185,0.13885 0.007,0.0512 0.0292,0.25578 0.0512,0.29963 0.24847,0.38001 0.5481,0.7308 0.81119,1.10351 0.16078,0.21924 0.31424,0.45309 0.42386,0.70156 0.13155,0.30694 0.21194,0.6358 0.32156,0.95005 0.0365,0.095 0.11692,0.35809 0.21193,0.39463 0.0146,0.007 0.0219,0.007 0.0365,0.007 0.2704,-0.0512 0.54079,-0.10232 0.81119,-0.14616 0.0365,-0.007 0.0731,-0.0804 0.0804,-0.10962 0.0512,-0.13886 0.0731,-0.27771 0.10232,-0.42387 0.0731,-0.4604 0.10962,-0.92812 0.14616,-1.39583 0.24116,0.8185 0.51887,1.62969 0.80388,2.43357 0.10962,0.30694 0.22655,0.61387 0.30693,0.93542 0.0365,0.14617 -0.0219,0.34348 -0.13154,0.43849 -0.40925,-0.0438 -0.8258,-0.15347 -1.1839,-0.3581 0.0512,-0.0365 0.10232,-0.0658 0.15347,-0.095 -0.0146,-0.10231 -0.0365,-0.19731 -0.0511,-0.29232 -0.2704,0.0512 -0.5481,0.095 -0.8185,0.14616 -0.0365,0.007 -0.14616,0.0804 -0.16809,0.10232 -0.0438,0.0292 -0.12423,0.095 -0.11692,0.14616 0.0146,0.095 0.0365,0.1827 0.0511,0.2777 0.0146,0.10232 0.23386,0.19732 0.32886,0.24117 0.33617,0.15347 0.70888,0.24116 1.08159,0.2777 0.15347,0.007 0.31424,0.007 0.47502,-0.0219 z"
         id="path25-3-7-9-1-7-2-8" /><path
         style="font-size:6.79133px;font-family:'Freedom Street';-inkscape-font-specification:'Freedom Street, Normal';baseline-shift:baseline;display:inline;overflow:visible;vector-effect:none;fill:#adff3c;fill-opacity:1;stroke:#a661db;stroke-width:1.07608;stroke-linecap:round;stroke-linejoin:round;stroke-opacity:1;paint-order:stroke fill markers;enable-background:accumulate;stop-color:#000000"
         d="m 22.228903,172.93907 c 0.2704,-0.0512 0.5481,-0.095 0.8185,-0.14616 0.14616,-0.0292 0.32155,-0.095 0.39463,-0.22655 0.0731,-0.14616 0.0585,-0.32155 0.0292,-0.48233 -0.0292,-0.16077 -0.0512,-0.32155 -0.0877,-0.48233 -0.0804,-0.29962 -0.19001,-0.59925 -0.29963,-0.89157 -0.25578,-0.7235 -0.51156,-1.4543 -0.7308,-2.1851 -0.16078,-0.51887 -0.29963,-1.03774 -0.43848,-1.5566 -0.0658,-0.24848 -0.12424,-0.50426 -0.21924,-0.75273 -0.007,-0.0365 -0.0292,-0.10231 -0.0658,-0.095 -0.2704,0.0512 -0.54079,0.095 -0.81119,0.14616 -0.0292,0.007 -0.0365,0.0585 -0.0365,0.0877 -0.0219,0.12424 -0.0292,0.24847 -0.0365,0.37271 -0.0512,0.77465 -0.095,1.5493 -0.16808,2.31664 -0.10962,-0.2704 -0.27771,-0.51156 -0.44579,-0.75273 -0.26309,-0.3727 -0.56272,-0.72349 -0.81119,-1.1035 -0.2704,0.0438 -0.5481,0.095 -0.8185,0.13885 0.007,0.0512 0.0292,0.25578 0.0512,0.29963 0.24847,0.38001 0.5481,0.7308 0.81119,1.10351 0.16078,0.21924 0.31424,0.45309 0.42386,0.70156 0.13155,0.30694 0.21194,0.6358 0.32156,0.95005 0.0365,0.095 0.11692,0.35809 0.21193,0.39463 0.0146,0.007 0.0219,0.007 0.0365,0.007 0.2704,-0.0512 0.54079,-0.10232 0.81119,-0.14616 0.0365,-0.007 0.0731,-0.0804 0.0804,-0.10962 0.0512,-0.13886 0.0731,-0.27771 0.10232,-0.42387 0.0731,-0.4604 0.10962,-0.92812 0.14616,-1.39583 0.24116,0.8185 0.51887,1.62969 0.80388,2.43357 0.10962,0.30694 0.22655,0.61387 0.30693,0.93542 0.0365,0.14617 -0.0219,0.34348 -0.13154,0.43849 -0.40925,-0.0438 -0.8258,-0.15347 -1.1839,-0.3581 0.0512,-0.0365 0.10232,-0.0658 0.15347,-0.095 -0.0146,-0.10231 -0.0365,-0.19731 -0.0511,-0.29232 -0.2704,0.0512 -0.5481,0.095 -0.8185,0.14616 -0.0365,0.007 -0.14616,0.0804 -0.16809,0.10232 -0.0438,0.0292 -0.12423,0.095 -0.11692,0.14616 0.0146,0.095 0.0365,0.1827 0.0511,0.2777 0.0146,0.10232 0.23386,0.19732 0.32886,0.24117 0.33617,0.15347 0.70888,0.24116 1.08159,0.2777 0.15347,0.007 0.31424,0.007 0.47502,-0.0219 z"
         id="path25-7-0-0-7-8-0-8-2" /><path
         style="font-size:6.79133px;font-family:'Freedom Street';-inkscape-font-specification:'Freedom Street, Normal';baseline-shift:baseline;display:inline;overflow:visible;vector-effect:none;fill:#adff3c;fill-opacity:1;stroke:#a661db;stroke-width:1.07608;stroke-linecap:round;stroke-linejoin:round;stroke-opacity:1;paint-order:stroke fill markers;enable-background:accumulate;stop-color:#000000"
         d="m 25.314853,172.14472 c 0.2777,-0.0439 0.55541,-0.095 0.83311,-0.14616 0.13886,-0.0219 0.25578,-0.13885 0.33617,-0.25578 0.16809,-0.27771 0.23386,-0.62118 0.24847,-0.95004 0.0365,-0.59926 -0.0731,-1.19852 -0.17539,-1.79047 -0.0731,-0.40194 -0.15347,-0.81849 -0.32886,-1.18389 -0.1827,-0.3654 -0.44579,-0.68696 -0.73811,-0.97197 -0.0219,-0.0219 -0.0658,-0.0585 -0.0877,-0.0512 -0.27039,0.0438 -0.5481,0.095 -0.8185,0.14616 -0.0146,-0.0658 -0.0219,-0.12423 -0.0365,-0.19001 0,-0.0146 -0.0146,-0.007 -0.0292,-0.007 -0.27039,0.0512 -0.54079,0.095 -0.81118,0.14616 -0.10232,0.0146 -0.095,0.20463 -0.10962,0.30694 -0.0365,0.26309 -0.0731,0.51887 -0.095,0.77465 -0.0366,0.40194 -0.0366,0.81119 0,1.21313 0.0219,0.21193 0.0585,0.41656 0.095,0.62118 0.10231,0.57733 0.39463,1.11813 0.74541,1.57853 0.20463,0.2704 0.64311,0.81119 0.97197,0.76003 z m -0.48964,-1.62238 c -0.19001,-0.31424 -0.35078,-0.65772 -0.43117,-1.02312 0,0 0,-0.007 0,-0.007 -0.0585,-0.4531 -0.0585,-0.92081 -0.0219,-1.37391 0.0219,-0.25578 0.0585,-0.50425 0.095,-0.75272 0.007,-0.0731 0.0146,-0.27771 0.0731,-0.31425 0,0.0146 -0.0219,0.095 -0.0219,0.10962 0.0219,0.095 0.0365,0.19001 0.0511,0.28502 0.0877,-0.0146 0.17539,-0.0365 0.25578,-0.0512 0.27771,0.29232 0.54079,0.61387 0.68695,0.98658 0.13886,0.38001 0.22655,0.78195 0.27771,1.17659 0.0512,0.35809 0.0877,0.71618 0.0731,1.07428 -0.0146,0.30693 -0.0658,0.62848 -0.21924,0.89888 -0.32886,-0.2777 -0.59195,-0.6358 -0.8185,-1.0085 z"
         id="path27-1-4-5-2-3-3-16" /><g
         id="text3-8-8-9-9-1-5-6-6-9-0"
         style="fill:#adff3c;fill-opacity:1;stroke:#a661db;stroke-opacity:1"
         transform="matrix(1.0760793,0,0,1.0760793,-33.632117,142.82244)"><path
           style="font-size:6.79133px;font-family:'Freedom Street';-inkscape-font-specification:'Freedom Street, Normal';baseline-shift:baseline;display:inline;overflow:visible;vector-effect:none;fill:#adff3c;fill-opacity:1;stroke:#a661db;stroke-linecap:round;stroke-linejoin:round;stroke-opacity:1;paint-order:stroke fill markers;enable-background:accumulate;stop-color:#000000;stop-opacity:1"
           d="m 59.182487,24.563192 c -0.122244,-0.495767 -0.230905,-0.998325 -0.319192,-1.500884 -0.04075,-0.190157 -0.07471,-0.387106 -0.08829,-0.590846 0,-0.01358 0.02716,-0.0068 0.02716,-0.02037 -0.02037,-0.10187 -0.02716,-0.217323 -0.06791,-0.312402 -0.258071,0.04754 -0.50935,0.08829 -0.767421,0.135827 -0.0068,0.02717 0.0068,0.162992 0.0068,0.196948 0.04075,0.312402 0.10187,0.618012 0.1562,0.930413 0.10187,0.597637 0.230905,1.195274 0.380315,1.792911 -0.10187,0.01358 -0.20374,0.03396 -0.298819,0.04754 -0.0068,0.0815 -0.04754,0.162992 -0.09508,0.230905 -0.0747,0.10187 -0.156201,0.210532 -0.237697,0.312401 -0.08829,-0.522932 -0.224114,-1.045864 -0.373523,-1.555214 -0.176575,-0.604428 -0.366732,-1.208857 -0.584054,-1.799702 -0.02037,-0.05433 -0.02717,-0.115453 -0.05433,-0.162992 -0.258071,0.04754 -0.516141,0.08829 -0.76742,0.135826 0.0068,0.04075 0.04075,0.251279 0.05433,0.292027 0.224114,0.61122 0.421063,1.229231 0.604429,1.847242 0.129035,0.441437 0.264862,0.889664 0.346357,1.337892 0.04075,0.230905 0.05433,0.455019 0.07471,0.685924 0.0068,0.108662 0.03396,0.217323 0.05433,0.325984 0.0068,0.02717 0.01358,0.06112 0.04075,0.05433 0.251279,-0.04075 0.489587,-0.05234 0.72276,-0.197981 0.912938,-0.570208 1.521971,0.258134 1.618437,-0.104799 0.06303,-0.237129 0.137666,-0.684251 -0.432842,-2.08098 z"
           id="path29-4-0-2-0-9-9-8"
           sodipodi:nodetypes="ccccccccccccccccccccccssc" /></g><g
         id="g52-9-1-3-4"
         transform="matrix(1.290478,0,0,1.3895159,-46.236497,135.41346)"><path
           id="path43-9-6-4-9-7"
           style="fill:#f3e7d5;stroke-width:2.2;stroke-linecap:round;stroke-linejoin:round;paint-order:stroke fill markers"
           d="m 69.224848,22.322303 v 1.324467 h 0.888318 v 2.692342 h 0.958081 V 23.64677 h 1.310514 v -1.324467 z" /><path
           d="m 68.687596,21.831297 v 2.13734 h 0.71262 v 2.849958 h 2.13734 v -2.849958 h 1.42472 v -2.13734 z m 0.71262,0.71262 h 2.84995 v 0.71262 h -1.42523 v 2.849438 h -0.7121 v -2.849438 h -0.71262 z"
           style="font-size:5.69956px;font-family:RETRO_SPACE;-inkscape-font-specification:'RETRO_SPACE, Normal';fill:#1e1714;fill-opacity:1;stroke-width:0.474963"
           id="path34-8-0-4-1-3-7-3-5-6-8-8" /></g><g
         id="g748-4-1"
         transform="matrix(0.81484561,0,0,0.81484561,90.997682,117.51886)"><path
           id="rect741-9-06-7"
           style="fill:#000000;fill-opacity:1;stroke:none;stroke-width:0.0508095;stroke-linecap:round;stroke-linejoin:round;stroke-dasharray:none;stroke-opacity:1;paint-order:stroke fill markers"
           d="m -62.05776,56.897009 c -0.37951,-0.0034 -0.80472,0.08194 -1.27035,0.258054 -0.40076,0.151576 -0.72495,0.324309 -1.27635,0.680069 -0.54495,0.351603 -0.68675,0.432766 -1.26184,0.7222 -0.44187,0.222383 -0.59168,0.304129 -0.79536,0.433986 -0.84234,0.537029 -1.37266,1.309866 -1.51621,2.15791 v 0.944761 c 0.006,0.03704 0.0131,0.07411 0.0207,0.111197 0.0667,0.32398 0.15724,0.566205 0.391,1.046288 0.3398,0.697843 0.37564,0.89226 0.31112,1.688407 -0.0571,0.703463 -0.0402,1.107875 0.0649,1.561265 0.26667,1.149746 1.01401,2.059182 2.06762,2.516051 0.27728,0.120232 0.58804,0.208134 0.90911,0.259773 h 1.3507 c 0.96739,-0.143031 2.04544,-0.561558 3.10532,-1.210095 1.80128,-1.102194 2.36529,-2.179598 1.89605,-3.621954 -0.23711,-0.728849 -0.59441,-1.248888 -1.1558,-1.68226 -0.60301,-0.465492 -0.61726,-0.498176 -0.50814,-1.165293 0.11643,-0.711809 0.0903,-1.089246 -0.13757,-1.993006 -0.17231,-0.683135 -0.31334,-1.169333 -0.40975,-1.412629 -0.3365,-0.84915 -0.95028,-1.287076 -1.78522,-1.294724 z" /><g
           id="g747-3-0"
           transform="translate(-231.96666,46.51537)"><path
             id="rect741-9-2-4-4"
             style="fill:#15d718;fill-opacity:1;stroke:none;stroke-width:0.0451639;stroke-linecap:round;stroke-linejoin:round;stroke-dasharray:none;stroke-opacity:1;paint-order:stroke fill markers"
             d="m 170.32884,10.540257 c -0.33735,-0.003 -0.71531,0.07283 -1.1292,0.229381 -0.35623,0.134734 -0.6444,0.288274 -1.13453,0.604504 -0.4844,0.312535 -0.61045,0.38468 -1.12163,0.641954 -0.39277,0.197673 -0.52594,0.270336 -0.70699,0.385764 -0.74874,0.477358 -1.22013,1.164322 -1.34774,1.918138 v 0.839784 c 0.006,0.03292 0.0117,0.06588 0.0184,0.09884 0.0593,0.287982 0.13977,0.503292 0.34755,0.930031 0.30205,0.620304 0.33391,0.793118 0.27656,1.500802 -0.0507,0.625299 -0.0357,0.984776 0.0577,1.387788 0.23704,1.021994 0.90134,1.830379 1.83788,2.236484 0.24646,0.106872 0.5227,0.185007 0.8081,0.230909 h 1.20061 c 0.8599,-0.127139 1.81817,-0.499162 2.76028,-1.075638 1.60113,-0.979725 2.10247,-1.937415 1.68537,-3.219506 -0.21076,-0.647864 -0.52836,-1.11012 -1.02737,-1.495338 -0.53601,-0.41377 -0.54868,-0.442821 -0.45168,-1.035813 0.10349,-0.632718 0.0802,-0.968216 -0.12229,-1.771557 -0.15316,-0.607228 -0.27852,-1.039403 -0.36422,-1.255666 -0.29911,-0.754798 -0.84469,-1.144065 -1.58686,-1.150863 z" /><path
             d="m 170.27114,19.734889 c 0.75384,-0.29709 1.4596,-0.737027 2.05593,-1.275583 0.0653,-0.06363 0.33776,-0.275475 0.37039,-0.357751 0.0707,-0.211899 -0.024,-0.32371 -0.13493,-0.495298 -0.24208,-0.383548 -0.3972,-0.818304 -0.54147,-1.246847 -0.0434,-0.125769 -0.1513,-0.252331 -0.28873,-0.15068 -0.17547,0.130362 -0.36181,0.254509 -0.54194,0.367792 -0.43013,0.273121 -1.06136,0.683581 -1.53881,0.850338 -0.49686,0.162869 -0.93449,-0.433432 -0.40731,-0.788032 0.13121,-0.09079 0.26476,-0.17303 0.38046,-0.287108 0.1572,-0.179294 0.12662,-0.429753 0.11596,-0.658703 -0.0124,-0.129703 -0.19366,-0.006 -0.31602,-0.03786 -0.56752,0.04943 -0.53923,-0.246562 -0.6031,-0.332228 -0.0973,-0.130456 -0.21417,-0.281072 -0.20248,-0.440204 0.0163,-0.142053 0.16232,-0.24603 0.29971,-0.246765 0.12654,-0.007 0.24994,0.04199 0.35861,0.104125 0.21266,0.107187 0.38648,0.307516 0.50674,0.513263 0.19553,0.313669 0.26465,0.230628 0.53017,0.09408 0.14441,-0.07604 0.78877,-0.269913 0.94404,-0.339729 0.13199,-0.0543 0.18325,-0.169173 0.0848,-0.362493 -0.22652,-0.562083 -0.40178,-1.138127 -0.52581,-1.728126 -0.0171,-0.09626 -0.0512,-0.187873 -0.0512,-0.288787 -0.007,-0.02562 -0.005,-0.05357 -0.003,-0.08151 -7.5e-4,-0.03649 7.4e-4,-0.06443 0.009,-0.103242 0.009,-0.103242 0.0536,-0.207248 0.0171,-0.307396 -0.0667,-0.211166 -0.34386,-0.117318 -0.54648,-0.05294 -0.43087,0.135719 -0.84389,0.303276 -1.26545,0.473151 -0.10016,0.03645 -0.21193,0.03021 -0.30976,0.07521 -0.0575,0.02482 -0.10327,0.09234 -0.12347,0.152888 -0.0256,0.107895 0.031,0.248415 0.10469,0.384283 -0.16924,0.01858 -0.33382,0.05424 -0.50072,0.08136 -0.43629,0.08215 -0.87337,0.228739 -1.24373,0.485578 -0.22827,0.172265 -0.44491,0.387229 -0.57463,0.651899 -0.39456,0.740442 0.0763,1.795529 0.90764,2.018563 0.0497,0.01399 0.0994,0.02798 0.14671,0.03342 -0.0358,0.03724 -0.0606,0.08072 -0.0963,0.117966 -0.3114,0.405895 -0.50175,0.953108 -0.49492,1.483302 -0.002,0.128861 -7.4e-4,0.26626 0.0255,0.396681 0.0372,0.237548 0.13027,0.478219 0.25285,0.692506 0.16061,0.28649 0.40894,0.558257 0.7062,0.706611 0.29728,0.148355 0.63415,0.240053 0.96484,0.241703 0.5263,0.01257 1.05111,-0.148735 1.53012,-0.343433 z"
             id="text5-0-0-6-5-0-6-6-6"
             style="font-size:11.9344px;font-family:'Street Year';-inkscape-font-specification:'Street Year, Normal';fill:#a0f8a5;fill-opacity:1;stroke:none;stroke-width:0.737567;stroke-opacity:1"
             aria-label="E"
             sodipodi:nodetypes="cccccccccczcsccccccccccccccccccccccccccsccc" /></g></g><g
         id="g749-6-9"
         transform="matrix(1.0826137,0,0,1.0826137,110.36927,101.61281)"><path
           d="m -73.103138,59.241433 v 6.401106 h 4.245984 v -0.914636 h 0.84945 v -4.571837 h -0.84945 v -0.914633 z m 0.848825,0.914633 h 2.547717 v 0.914633 h 0.849442 v 0.913968 h -0.849442 V 62.8993 h 0.849442 v 0.914636 h -0.849442 v 0.913967 h -2.547717 z m 2.547717,3.65787 V 62.8993 h -1.698267 v 0.914636 z m 0,-1.829269 v -0.913968 h -1.698267 v 0.913968 z"
           style="font-size:5.69956px;font-family:RETRO_SPACE;-inkscape-font-specification:'RETRO_SPACE, Normal';fill:#1e1714;fill-opacity:1;stroke-width:0.587481"
           id="path30-1-7-0-8-8-7-1-9-1-1-53" /><path
           d="m -72.254313,60.156066 v 4.571839 h 2.547717 v -0.913969 h -1.698267 v -0.914635 h 1.698267 v -0.914632 h -1.698267 v -0.91397 h 1.698267 v -0.914633 z m 2.547717,0.914633 v 0.91397 l 0.968181,0.0055 0.0155,-0.919528 z m 0,1.828602 v 0.914635 h 0.849442 v -0.914635 z"
           style="fill:#f3e7d5;fill-opacity:1;stroke-width:0.779696;stroke-linecap:round;stroke-linejoin:round;paint-order:stroke fill markers"
           id="path31-8-8-0-9-0-5-9-4-4-7-2"
           sodipodi:nodetypes="ccccccccccccccccccccccc" /></g></g></g></svg>
